<svg width="32" height="32" viewBox="0 0 32 32" fill="none" xmlns="http://www.w3.org/2000/svg">
<path d="M26.4586 17.4633C25.6325 17.6827 24.7815 17.7938 23.9268 17.7937C21.3243 17.7937 18.8804 16.7819 17.0446 14.9462C15.8391 13.7338 14.9725 12.2266 14.531 10.5748C14.0896 8.92303 14.0888 7.18441 14.5287 5.53224C14.5836 5.32567 14.5833 5.10828 14.5277 4.90188C14.4721 4.69549 14.3632 4.50734 14.2119 4.35632C14.0606 4.2053 13.8723 4.09671 13.6658 4.04144C13.4593 3.98618 13.242 3.98619 13.0355 4.04146C10.9671 4.59265 9.08005 5.67806 7.5636 7.18879C2.81213 11.9403 2.81213 19.6745 7.5636 24.4284C8.693 25.5641 10.0364 26.4645 11.5161 27.0776C12.9958 27.6906 14.5824 28.0041 16.184 28C17.7853 28.0044 19.3715 27.6912 20.8508 27.0783C22.3301 26.4655 23.6731 25.5652 24.802 24.4296C26.3139 22.9129 27.3998 21.0249 27.9506 18.9553C28.0053 18.7488 28.0048 18.5316 27.9493 18.3254C27.8937 18.1191 27.7849 17.9311 27.6339 17.78C27.4828 17.629 27.2948 17.5202 27.0885 17.4646C26.8823 17.4091 26.6651 17.4086 26.4586 17.4633ZM23.0796 22.706C22.1764 23.6143 21.1019 24.3344 19.9185 24.8246C18.7351 25.3148 17.4662 25.5655 16.1852 25.562C14.9039 25.5652 13.6346 25.3144 12.4508 24.8239C11.267 24.3335 10.1921 23.6132 9.28842 22.7048C5.48773 18.9029 5.48773 12.7155 9.28842 8.91361C10.0228 8.18001 10.8707 7.56961 11.7995 7.1059C11.6635 8.86005 11.9079 10.6229 12.5159 12.2739C13.1239 13.9249 14.0811 15.4252 15.3222 16.6722C16.5665 17.9172 18.0664 18.8772 19.7181 19.4856C21.3698 20.094 23.1339 20.3365 24.8886 20.1962C24.4223 21.1234 23.8118 21.9705 23.0796 22.706Z" fill="#212121" fill-opacity="0.36"/>
</svg>
