<svg width="40" height="40" viewBox="0 0 40 40" fill="none" xmlns="http://www.w3.org/2000/svg">
<path d="M7.5 18.2143L32.5 18.2143L32.5 21.7857L7.5 21.7857L7.5 18.2143ZM20 32.5C19.0528 32.5 18.1444 32.1237 17.4746 31.454C16.8048 30.7842 16.4286 29.8758 16.4286 28.9286C16.4286 27.9814 16.8048 27.073 17.4746 26.4032C18.1444 25.7334 19.0528 25.3571 20 25.3571C20.9472 25.3571 21.8556 25.7334 22.5254 26.4032C23.1952 27.073 23.5714 27.9814 23.5714 28.9286C23.5714 29.8758 23.1952 30.7842 22.5254 31.454C21.8556 32.1237 20.9472 32.5 20 32.5ZM20 14.6429C19.0528 14.6429 18.1444 14.2666 17.4746 13.5968C16.8048 12.927 16.4286 12.0186 16.4286 11.0714C16.4286 10.1242 16.8048 9.21582 17.4746 8.54605C18.1444 7.87627 19.0528 7.5 20 7.5C20.9472 7.5 21.8556 7.87628 22.5254 8.54605C23.1952 9.21582 23.5714 10.1242 23.5714 11.0714C23.5714 12.0186 23.1952 12.927 22.5254 13.5968C21.8556 14.2666 20.9472 14.6429 20 14.6429Z" fill="#E57373"/>
</svg>
