<svg width="50" height="32" viewBox="0 0 50 32" fill="none" xmlns="http://www.w3.org/2000/svg">
<rect width="50" height="32" fill="#868686"/>
<g id="FoodieGo - Main View" clip-path="url(#clip0_0_1)">
<rect id="Rectangle 24" x="-191" y="-92" width="1440" height="1024" fill="url(#paint0_linear_0_1)"/>
<g id="Mask group">
<mask id="mask0_0_1" style="mask-type:alpha" maskUnits="userSpaceOnUse" x="-15" y="-4" width="1088" height="62">
<rect id="Rectangle 23" x="-15" y="-4" width="1088" height="62" fill="#D9D9D9"/>
</mask>
<g mask="url(#mask0_0_1)">
<g id="Frame 223">
<g id="Group 228">
<g id="Frame 221">
<g id="Food - icons">
<g id="Frame 218">
<g id="Group 217">
<path id="Vector" d="M0.675386 23.578C0.675386 23.578 -1.82661 32 15.9753 32C17.2793 32 26.3093 31.972 27.4553 31.92C46.2332 31.054 44.5312 23.522 44.5312 23.522C44.5352 25.99 0.681386 26.05 0.677386 23.58L0.675386 23.578Z" fill="#FFB749"/>
<path id="Vector_2" d="M44.5292 23.52C44.5292 23.534 44.5292 23.548 44.5252 23.562C44.3452 25.05 34.5992 26.25 22.6032 26.25C10.6073 26.25 1.77329 25.16 0.767293 23.768C0.707293 23.688 0.675293 23.602 0.675293 23.52C0.675293 22.804 2.89529 22.15 6.52927 21.664C10.5333 21.126 16.2532 20.79 22.6032 20.79C33.8832 20.79 43.1732 21.852 44.3912 23.214C44.4812 23.316 44.5292 23.416 44.5292 23.52Z" fill="#C46E00"/>
<g id="Vector_3" style="mix-blend-mode:darken">
<path d="M44.3913 23.214C42.9993 23.836 41.2113 24.392 38.9213 24.814C37.0254 25.162 34.7814 25.418 32.1294 25.54C30.9834 25.592 21.9534 25.62 20.6494 25.62C18.6154 25.62 16.8454 25.51 15.3074 25.314C10.3894 24.692 7.83544 23.198 6.53345 21.662C10.5374 21.124 16.2574 20.788 22.6074 20.788C33.8874 20.788 43.1773 21.85 44.3953 23.212L44.3913 23.214Z" fill="black" fill-opacity="0.16"/>
</g>
<path id="Vector_4" d="M5.55112 15.7841C5.55112 15.7841 3.04913 24.206 20.8511 24.206C22.1551 24.206 31.185 24.178 32.331 24.126C51.109 23.26 49.407 15.7281 49.407 15.7281C49.411 18.1961 5.55712 18.2561 5.55312 15.7861L5.55112 15.7841Z" fill="#FFB749"/>
<path id="Vector_5" d="M49.4051 15.7261C49.4051 17.232 39.5892 18.456 27.4792 18.456C15.3692 18.456 5.55127 17.232 5.55127 15.7261C5.55127 15.3681 6.10127 15.0281 7.10526 14.7141C10.3313 13.7061 18.2372 12.9961 27.4792 12.9961C34.5212 12.9961 40.7872 13.4081 44.7991 14.0521C47.6851 14.5161 49.4031 15.0961 49.4031 15.7261H49.4051Z" fill="#C46E00"/>
<g id="Vector_6" style="mix-blend-mode:darken">
<path d="M44.7992 14.0521C42.3632 15.5301 38.1832 16.826 31.0312 17.156C29.8872 17.208 20.8552 17.236 19.5532 17.236C13.0913 17.236 9.30726 16.1281 7.10327 14.7141C10.3293 13.7061 18.2352 12.9961 27.4772 12.9961C34.5192 12.9961 40.7852 13.4081 44.7972 14.0521H44.7992Z" fill="black" fill-opacity="0.16"/>
</g>
<path id="Vector_7" d="M4.45737 7.40009C4.45737 7.40009 1.95538 15.8221 19.7573 15.8221C21.0613 15.8221 30.0913 15.7941 31.2373 15.7421C50.0152 14.8761 48.3132 7.34409 48.3132 7.34409C48.3172 9.81208 4.46337 9.87208 4.45937 7.40208L4.45737 7.40009Z" fill="#FFB749"/>
<path id="Vector_8" d="M48.3091 7.34207C48.3091 8.85006 38.4912 10.0721 26.3832 10.0721C14.2752 10.0721 4.45728 8.85006 4.45728 7.34207C4.45728 5.83407 14.2332 2.71008 26.3432 2.71008C38.4532 2.71008 48.3111 5.83407 48.3111 7.34207H48.3091Z" fill="#C46E00"/>
<g id="Vector_9" style="mix-blend-mode:darken">
<path d="M32.0092 4.39009C31.7532 5.44408 30.6172 6.21008 29.4392 6.96008C26.1812 7.11208 22.9752 6.90208 19.8412 6.19808C19.3112 6.08008 18.9152 5.63808 18.8532 5.09808C18.7652 4.33809 18.7652 3.64409 18.9872 3.12409C18.9992 3.08609 19.0212 3.04409 19.0492 3.00009C20.8532 2.67409 25.3812 2.08409 32.0552 2.74009C32.1432 3.41009 32.1732 4.00809 32.0112 4.39009H32.0092Z" fill="black" fill-opacity="0.16"/>
</g>
<path id="Vector_10" d="M30.1372 6.22609C31.3172 5.47609 32.4512 4.71009 32.7072 3.6561C32.9312 3.1261 32.7892 2.1761 32.6272 1.2001L29.9072 3.4341L30.1392 6.22609H30.1372Z" fill="#FCCF61"/>
<path id="Vector_11" d="M19.5514 4.36408C19.4634 3.60409 19.4614 2.91209 19.6834 2.39209L30.1373 3.54009C30.3993 4.26408 30.4133 5.15008 30.1373 6.22808C26.8794 6.38008 23.6734 6.17008 20.5394 5.46608C20.0094 5.34608 19.6134 4.90408 19.5494 4.36408H19.5514Z" fill="#FDE77A"/>
<path id="Vector_12" d="M22.755 0.206083C22.755 0.206083 19.9151 1.68608 19.6851 2.39208C22.965 3.37007 26.471 3.68807 30.139 3.54007L32.627 1.20208C31.663 -0.0739156 23.593 -0.199915 22.755 0.206083Z" fill="#F8C73B"/>
<path id="Vector_13" d="M25.715 1.20207C25.715 1.20207 24.343 1.00608 24.477 1.41007C24.611 1.81407 24.191 1.91407 25.091 2.15007C25.991 2.38607 26.629 2.15007 27.135 2.15007C27.641 2.15007 28.011 1.23007 27.439 1.20207C26.867 1.17407 25.715 1.20207 25.715 1.20207Z" fill="#FFDA88"/>
</g>
</g>
</g>
</g>
</g>
</g>
</g>
</g>
</g>
<defs>
<linearGradient id="paint0_linear_0_1" x1="466.534" y1="-429.657" x2="466.534" y2="932" gradientUnits="userSpaceOnUse">
<stop stop-color="white"/>
<stop offset="1" stop-color="#CFD8DC"/>
</linearGradient>
<clipPath id="clip0_0_1">
<rect width="1440" height="1024" fill="white" transform="translate(-191 -92)"/>
</clipPath>
</defs>
</svg>
