<svg width="24" height="32" viewBox="0 0 24 32" fill="none" xmlns="http://www.w3.org/2000/svg">
<rect width="24" height="32" fill="#868686"/>
<g id="FoodieGo - Main View" clip-path="url(#clip0_0_1)">
<rect id="Rectangle 24" x="-754" y="-92" width="1440" height="1024" fill="url(#paint0_linear_0_1)"/>
<g id="Mask group">
<mask id="mask0_0_1" style="mask-type:alpha" maskUnits="userSpaceOnUse" x="-578" y="-4" width="1088" height="62">
<rect id="Rectangle 23" x="-578" y="-4" width="1088" height="62" fill="#D9D9D9"/>
</mask>
<g mask="url(#mask0_0_1)">
<g id="Frame 223">
<g id="Group 233">
<g id="Frame 221">
<g id="Food - icons">
<g id="Layer_1" clip-path="url(#clip1_0_1)">
<path id="Vector" d="M18.4506 20.6542L22.6369 13.0229L23.837 6.08118C23.8889 5.71569 23.6374 5.37612 23.2719 5.32427L21.4937 5.06506C21.1282 5.01322 20.7887 5.26465 20.7368 5.63014L18.4506 20.6542Z" fill="#FFE170"/>
<path id="Vector_2" d="M11.9806 0C12.8438 0 13.5463 0.702471 13.5463 1.56565V24.3247H10.4124V1.56565C10.4124 0.702471 11.1148 0 11.9806 0Z" fill="#FFCD70"/>
<path id="Vector_3" d="M8.84669 1.52676C9.71246 1.52676 10.4123 2.22923 10.4123 3.09242V25.8514H7.27844V3.09242C7.27844 2.22664 7.98091 1.52676 8.8441 1.52676H8.84669Z" fill="#FFB65C"/>
<path id="Vector_4" d="M5.20393 3.06239C6.06576 2.97986 6.82941 3.61242 6.9117 4.47167L9.08119 27.127L5.96156 27.4258L3.79231 4.77299C3.70978 3.91116 4.34234 3.1475 5.20159 3.06522L5.20393 3.06239Z" fill="#FFE170"/>
<path id="Vector_5" d="M9.91212 4.6814C10.7779 4.6814 11.4778 5.38387 11.4778 6.24705V21.1234H8.34387V6.24964C8.34387 5.38387 9.04634 4.68399 9.90953 4.68399L9.91212 4.6814Z" fill="#FFE170"/>
<path id="Vector_6" d="M5.45368 6.74602C6.31552 6.66349 7.07917 7.29604 7.16145 8.1553L8.57953 22.9639L5.4599 23.2626L4.04182 8.45403C3.95929 7.5922 4.59185 6.82855 5.4511 6.74626L5.45368 6.74602Z" fill="#FFCD70"/>
<path id="Vector_7" d="M5.50802 20.6542L1.36318 13.0229L0.16302 6.08118C0.111177 5.71569 0.362615 5.37612 0.728107 5.32427L2.50632 5.06506C2.87181 5.01322 3.21138 5.26465 3.26322 5.63014L5.50802 20.6542Z" fill="#FFCD70"/>
<path id="Vector_8" d="M16.6802 25.8514H13.5463L13.5463 3.09243C13.5463 2.22665 14.2487 1.52677 15.1119 1.52677C15.9777 1.52677 16.6776 2.22924 16.6776 3.09243L16.6776 25.8514H16.6802Z" fill="#FFE170"/>
<path id="Vector_9" d="M17.9982 27.4314L14.8785 27.1327L17.048 4.47729C17.1306 3.61545 17.8965 2.98572 18.7558 3.06801C19.6176 3.15053 20.2474 3.91652 20.1651 4.77578L17.9956 27.4311L17.9982 27.4314Z" fill="#FFB65C"/>
<path id="Vector_10" d="M14.359 23.2634L11.2394 22.9647L12.6575 8.15609C12.74 7.29426 13.506 6.66453 14.3652 6.74682C15.2271 6.82935 15.8568 7.59533 15.7745 8.45459L14.3564 23.2632L14.359 23.2634Z" fill="#FFB65C"/>
<path id="Vector_11" d="M18.0002 23.8729L14.8806 23.5742L16.2987 8.76559C16.3812 7.90376 17.1472 7.27403 18.0065 7.35631C18.8683 7.43884 19.498 8.20483 19.4157 9.06408L17.9977 23.8726L18.0002 23.8729Z" fill="#FFCD70"/>
<path id="Vector_12" d="M20.3299 13.0229C19.3863 13.0229 18.5309 13.5595 18.1006 14.3968C16.9549 16.626 14.6323 18.1502 11.9547 18.1502C9.27697 18.1502 6.95441 16.626 5.80868 14.3968C5.37839 13.5569 4.52298 13.0229 3.57944 13.0229H1.36316L4.90403 29.7474C5.01549 31.0202 6.08345 32 7.36138 32H16.6387C17.9166 32 18.9845 31.0228 19.096 29.7474L22.6369 13.0229H20.3299Z" fill="#CE2A19"/>
<path id="Vector_13" d="M16.6387 32C17.9166 32 18.9846 31.0228 19.0961 29.7474L22.6369 13.0229H20.3299C19.3864 13.0229 18.531 13.5595 18.1007 14.3968L15.5759 32H16.6387Z" fill="#B21A12"/>
<path id="Vector_14" d="M10.4123 26.6861C11.8683 26.6861 13.0485 25.5058 13.0485 24.0499C13.0485 22.594 11.8683 21.4137 10.4123 21.4137C8.95639 21.4137 7.77612 22.594 7.77612 24.0499C7.77612 25.5058 8.95639 26.6861 10.4123 26.6861Z" fill="white"/>
</g>
</g>
</g>
</g>
</g>
</g>
</g>
</g>
<defs>
<linearGradient id="paint0_linear_0_1" x1="-96.4662" y1="-429.657" x2="-96.4662" y2="932" gradientUnits="userSpaceOnUse">
<stop stop-color="white"/>
<stop offset="1" stop-color="#CFD8DC"/>
</linearGradient>
<clipPath id="clip0_0_1">
<rect width="1440" height="1024" fill="white" transform="translate(-754 -92)"/>
</clipPath>
<clipPath id="clip1_0_1">
<rect width="23.6896" height="32" fill="white" transform="translate(0.155273)"/>
</clipPath>
</defs>
</svg>
