<svg width="50" height="32" viewBox="0 0 50 32" fill="none" xmlns="http://www.w3.org/2000/svg">
<rect width="50" height="32" fill="#868686"/>
<g id="FoodieGo - Main View" clip-path="url(#clip0_0_1)">
<rect id="Rectangle 24" x="-925" y="-92" width="1440" height="1024" fill="url(#paint0_linear_0_1)"/>
<g id="Mask group">
<mask id="mask0_0_1" style="mask-type:alpha" maskUnits="userSpaceOnUse" x="-749" y="-4" width="1088" height="62">
<rect id="Rectangle 23" x="-749" y="-4" width="1088" height="62" fill="#D9D9D9"/>
</mask>
<g mask="url(#mask0_0_1)">
<g id="Frame 223">
<g id="Group 235">
<g id="Frame 221">
<g id="Food - icons">
<g id="Layer_1" clip-path="url(#clip1_0_1)">
<path id="Vector" d="M0.19458 8.06934C0.663758 21.3644 11.5896 32 25.0014 32C38.4131 32 49.3364 21.3644 49.8082 8.06934H0.19458Z" fill="#1A292D"/>
<path id="Vector_2" d="M24.9988 16.1387C38.7078 16.1387 49.8211 12.5259 49.8211 8.06934C49.8211 3.61277 38.7078 0 24.9988 0C11.2897 0 0.176392 3.61277 0.176392 8.06934C0.176392 12.5259 11.2897 16.1387 24.9988 16.1387Z" fill="#D78D2E"/>
<path id="Vector_3" d="M24.9988 0C11.2889 0 0.176392 3.61345 0.176392 8.06934C0.176392 12.5252 11.2889 16.1387 24.9988 16.1387C38.7086 16.1387 49.8211 12.5252 49.8211 8.06934C49.8211 3.61345 38.7086 0 24.9988 0ZM24.9988 14.5704C12.0899 14.5704 1.62799 11.6284 1.62799 7.99676C1.62799 4.36517 12.0925 1.42568 24.9988 1.42568C37.905 1.42568 48.3695 4.36776 48.3695 7.99935C48.3695 11.6309 37.905 14.573 24.9988 14.573V14.5704Z" fill="#304044"/>
<path id="Vector_4" d="M24.9988 2.99393C36.9616 2.99393 46.8169 5.52127 48.1985 8.78219C48.3074 8.52557 48.3696 8.26376 48.3696 7.99677C48.3696 4.36777 37.9051 1.4231 24.9988 1.4231C12.0925 1.4231 1.62805 4.36777 1.62805 7.99677C1.62805 8.26376 1.69026 8.52557 1.79913 8.78219C3.18075 5.52387 13.0361 2.99393 24.9988 2.99393Z" fill="#1A292D"/>
<path id="Vector_5" d="M42.2184 5.66644C41.2515 5.31909 39.9425 5.10394 38.4961 5.10394C37.0497 5.10394 35.7406 5.31909 34.7738 5.66644H33.1096V7.12322C33.1096 8.23784 35.5203 9.1425 38.4961 9.1425C41.4719 9.1425 43.8826 8.23784 43.8826 7.12322V5.66644H42.2184Z" fill="#E8E8DF"/>
<path id="Vector_6" d="M38.4961 7.76088C41.471 7.76088 43.8826 6.85682 43.8826 5.7416C43.8826 4.62638 41.471 3.72232 38.4961 3.72232C35.5212 3.72232 33.1096 4.62638 33.1096 5.7416C33.1096 6.85682 35.5212 7.76088 38.4961 7.76088Z" fill="#FFFFF4"/>
<path id="Vector_7" d="M41.5988 5.345C41.5988 7.07136 35.3491 7.07136 35.3491 5.345C35.3491 3.61863 36.7489 2.21887 38.4752 2.21887C40.2016 2.21887 41.6014 3.61863 41.6014 5.345H41.5988Z" fill="#FCB712"/>
<path id="Vector_8" d="M39.5096 3.06909C39.6988 3.11057 39.8803 3.17796 40.0462 3.27128L39.7714 3.57974C39.5848 3.48643 39.3826 3.42681 39.17 3.41125L39.5096 3.06909Z" fill="#FFCE6C"/>
<path id="Vector_9" d="M41.0493 4.3859L40.5957 4.58031C40.5179 4.31591 40.3728 4.07743 40.1862 3.8882L40.4791 3.57455C40.7253 3.79489 40.9223 4.07225 41.0493 4.3859Z" fill="#FFCE6C"/>
<path id="Vector_10" d="M34.5249 10.3686C33.5762 10.029 32.2957 9.81903 30.8804 9.81903C29.465 9.81903 28.1819 10.029 27.2358 10.3686H25.6053V11.7968C25.6053 12.8907 27.9668 13.7746 30.8804 13.7746C33.7939 13.7746 36.1554 12.8881 36.1554 11.7968V10.3686H34.5249Z" fill="#E8E8DF"/>
<path id="Vector_11" d="M30.8804 12.419C33.7937 12.419 36.1554 11.5335 36.1554 10.4412C36.1554 9.34884 33.7937 8.46335 30.8804 8.46335C27.967 8.46335 25.6053 9.34884 25.6053 10.4412C25.6053 11.5335 27.967 12.419 30.8804 12.419Z" fill="#FFFFF4"/>
<path id="Vector_12" d="M33.9183 10.0549C33.9183 11.745 27.7957 11.745 27.7957 10.0549C27.7957 8.36484 29.1669 6.99359 30.857 6.99359C32.5471 6.99359 33.9183 8.36484 33.9183 10.0549Z" fill="#FCB712"/>
<path id="Vector_13" d="M31.8705 7.82568C32.0545 7.86716 32.2334 7.93196 32.3967 8.02268L32.1271 8.32596C31.9457 8.23524 31.7461 8.17821 31.5387 8.16007L31.8731 7.82309L31.8705 7.82568Z" fill="#FFCE6C"/>
<path id="Vector_14" d="M33.3791 9.11396L32.9358 9.30319C32.8581 9.04398 32.7181 8.81068 32.5341 8.62664L32.8192 8.31818C33.0603 8.53332 33.2547 8.8055 33.3791 9.11396Z" fill="#FFCE6C"/>
<path id="Vector_15" d="M31.2821 5.66903C31.2821 6.73699 26.8262 6.73699 26.8262 5.66903C26.8262 4.60107 27.8241 3.73529 29.0528 3.73529C30.2815 3.73529 31.2795 4.60107 31.2795 5.66903H31.2821Z" fill="#5EDD7C"/>
<path id="Vector_16" d="M20.4029 10.3841C20.4029 11.4521 15.947 11.4521 15.947 10.3841C15.947 9.31615 16.945 8.45038 18.1737 8.45038C19.4023 8.45038 20.4003 9.31615 20.4003 10.3841H20.4029Z" fill="#5EDD7C"/>
<path id="Vector_17" d="M41.1607 11.4884C41.1607 12.2323 38.0527 12.2323 38.0527 11.4884C38.0527 10.7444 38.7474 10.1405 39.6054 10.1405C40.4634 10.1405 41.1581 10.7444 41.1581 11.4884H41.1607Z" fill="#5EDD7C"/>
<path id="Vector_18" d="M46.2388 8.73551C46.2388 9.24617 44.1055 9.24617 44.1055 8.73551C44.1055 8.22486 44.5824 7.81012 45.1708 7.81012C45.7593 7.81012 46.2362 8.22486 46.2362 8.73551H46.2388Z" fill="#5EDD7C"/>
<path id="Vector_19" d="M23.555 12.6911C23.555 13.2018 21.4216 13.2018 21.4216 12.6911C21.4216 12.1805 21.8986 11.7657 22.487 11.7657C23.0754 11.7657 23.5524 12.1805 23.5524 12.6911H23.555Z" fill="#5EDD7C"/>
<path id="Vector_20" d="M25.1647 9.05436C25.1647 9.56501 23.0314 9.56501 23.0314 9.05436C23.0314 8.54371 23.5083 8.12897 24.0967 8.12897C24.6852 8.12897 25.1621 8.54371 25.1621 9.05436H25.1647Z" fill="#5EDD7C"/>
<path id="Vector_21" d="M12.9193 12.0664C12.9193 12.5771 10.786 12.5771 10.786 12.0664C10.786 11.5558 11.263 11.141 11.8514 11.141C12.4398 11.141 12.9168 11.5558 12.9168 12.0664H12.9193Z" fill="#5EDD7C"/>
<path id="Vector_22" d="M24.0993 6.45442C24.0993 9.01546 13.4093 9.01546 13.4093 6.45442C13.4093 3.89338 15.8018 1.81708 18.7543 1.81708C21.7067 1.81708 24.0993 3.89338 24.0993 6.45442Z" fill="#F7AA9C"/>
<path id="Vector_23" d="M13.7177 9.2021C13.7177 11.7631 3.02771 11.7631 3.02771 9.2021C3.02771 6.64106 5.42026 4.56476 8.37271 4.56476C11.3252 4.56476 13.7177 6.64106 13.7177 9.2021Z" fill="#F7AA9C"/>
<g id="Group" opacity="0.3">
<path id="Vector_24" d="M13.7177 9.2021C13.7177 9.23839 13.7151 9.27468 13.7099 9.30838C13.5544 6.86658 11.2241 4.92766 8.37271 4.92766C5.52135 4.92766 3.19101 6.86658 3.03549 9.30838C3.0303 9.27468 3.02771 9.24099 3.02771 9.2021C3.02771 6.63847 5.41767 4.56735 8.37271 4.56735C11.3278 4.56735 13.7177 6.64107 13.7177 9.2021Z" fill="white"/>
<path id="Vector_25" d="M29.0554 4.10075C30.1881 4.10075 31.1213 4.83692 31.2639 5.78565C31.2768 5.74936 31.2846 5.71047 31.2846 5.67159C31.2846 4.60363 30.2866 3.73785 29.0579 3.73785C27.8293 3.73785 26.8313 4.60363 26.8313 5.67159C26.8313 5.71047 26.8391 5.74936 26.852 5.78565C26.992 4.83433 27.9252 4.10075 29.0605 4.10075H29.0554Z" fill="white"/>
<path id="Vector_26" d="M18.1762 8.81328C19.309 8.81328 20.2421 9.54945 20.3847 10.4982C20.3977 10.4619 20.4054 10.423 20.4054 10.3841C20.4054 9.31615 19.4075 8.45038 18.1788 8.45038C16.9501 8.45038 15.9521 9.31615 15.9521 10.3841C15.9521 10.423 15.9599 10.4619 15.9729 10.4982C16.1129 9.54686 17.046 8.81328 18.1814 8.81328H18.1762Z" fill="white"/>
<path id="Vector_27" d="M39.6081 10.5033C40.3676 10.5033 41.0001 10.9777 41.1349 11.6024C41.153 11.5661 41.1634 11.5298 41.1634 11.4884C41.1634 10.7444 40.4687 10.1404 39.6107 10.1404C38.7527 10.1404 38.058 10.7444 38.058 11.4884C38.058 11.5272 38.0684 11.5661 38.0865 11.6024C38.2213 10.9777 38.8538 10.5033 39.6133 10.5033H39.6081Z" fill="white"/>
<path id="Vector_28" d="M45.1707 8.17302C45.6606 8.17302 46.0676 8.46075 46.192 8.84957C46.2179 8.81587 46.2361 8.77699 46.2361 8.73551C46.2361 8.22486 45.7591 7.81012 45.1707 7.81012C44.5823 7.81012 44.1053 8.22486 44.1053 8.73551C44.1053 8.77699 44.1235 8.81328 44.1494 8.84957C44.2764 8.46075 44.6834 8.17302 45.1707 8.17302Z" fill="white"/>
<path id="Vector_29" d="M22.4896 12.1286C22.9795 12.1286 23.3864 12.4163 23.5109 12.8052C23.5368 12.7715 23.5549 12.7326 23.5549 12.6911C23.5549 12.1805 23.078 11.7657 22.4896 11.7657C21.9011 11.7657 21.4242 12.1805 21.4242 12.6911C21.4242 12.7326 21.4423 12.7689 21.4683 12.8052C21.5953 12.4163 22.0022 12.1286 22.4896 12.1286Z" fill="white"/>
<path id="Vector_30" d="M24.0992 8.49184C24.5891 8.49184 24.9961 8.77956 25.1205 9.16839C25.1464 9.13469 25.1646 9.09581 25.1646 9.05433C25.1646 8.54368 24.6876 8.12894 24.0992 8.12894C23.5108 8.12894 23.0338 8.54368 23.0338 9.05433C23.0338 9.09581 23.052 9.1321 23.0779 9.16839C23.2049 8.77956 23.6119 8.49184 24.0992 8.49184Z" fill="white"/>
<path id="Vector_31" d="M11.8514 11.5039C12.3413 11.5039 12.7483 11.7917 12.8727 12.1805C12.8986 12.1468 12.9168 12.1079 12.9168 12.0664C12.9168 11.5558 12.4398 11.141 11.8514 11.141C11.263 11.141 10.786 11.5558 10.786 12.0664C10.786 12.1079 10.8042 12.1442 10.8301 12.1805C10.9571 11.7917 11.3641 11.5039 11.8514 11.5039Z" fill="white"/>
<path id="Vector_32" d="M18.7542 2.18257C21.6081 2.18257 23.9333 4.12409 24.0836 6.56848C24.0888 6.53219 24.0992 6.4959 24.0992 6.45701C24.0992 3.89598 21.7066 1.81967 18.7542 1.81967C15.8017 1.81967 13.4092 3.89598 13.4092 6.45701C13.4092 6.4959 13.4195 6.53219 13.4247 6.56848C13.5751 4.12668 15.9002 2.18257 18.7542 2.18257Z" fill="white"/>
</g>
</g>
</g>
</g>
</g>
</g>
</g>
</g>
</g>
<defs>
<linearGradient id="paint0_linear_0_1" x1="-267.466" y1="-429.657" x2="-267.466" y2="932" gradientUnits="userSpaceOnUse">
<stop stop-color="white"/>
<stop offset="1" stop-color="#CFD8DC"/>
</linearGradient>
<clipPath id="clip0_0_1">
<rect width="1440" height="1024" fill="white" transform="translate(-925 -92)"/>
</clipPath>
<clipPath id="clip1_0_1">
<rect width="49.6473" height="32" fill="white" transform="translate(0.176392)"/>
</clipPath>
</defs>
</svg>
