<svg width="38" height="33" viewBox="0 0 38 33" fill="none" xmlns="http://www.w3.org/2000/svg">
<rect width="38" height="33" fill="#868686"/>
<g id="FoodieGo - Main View" clip-path="url(#clip0_0_1)">
<rect id="Rectangle 24" x="-655" y="-91" width="1440" height="1024" fill="url(#paint0_linear_0_1)"/>
<g id="Mask group">
<mask id="mask0_0_1" style="mask-type:alpha" maskUnits="userSpaceOnUse" x="-479" y="-3" width="1088" height="62">
<rect id="Rectangle 23" x="-479" y="-3" width="1088" height="62" fill="#D9D9D9"/>
</mask>
<g mask="url(#mask0_0_1)">
<g id="Frame 223">
<g id="Group 232">
<g id="Frame 221">
<g id="Food - icons">
<g id="Layer_1" clip-path="url(#clip1_0_1)">
<path id="Vector" d="M34.1769 17.1034H3.80995C1.90732 17.1034 0.36499 15.5611 0.36499 13.6584V12.7719C0.36499 -3.52228 37.6219 -3.52228 37.6219 12.7719V13.6584C37.6219 15.5611 36.0795 17.1034 34.1769 17.1034Z" fill="#EFAD60"/>
<path id="Vector_2" d="M34.8846 26.0074C36.3751 26.0074 37.6297 24.8202 37.6375 23.3297C37.6375 23.3194 37.6375 23.309 37.6375 23.3012V22.0751C37.6375 20.6339 36.0951 19.4674 34.1925 19.4674H3.82814C1.9255 19.4674 0.383179 20.6365 0.383179 22.0751V23.3012C0.383179 23.3012 0.383179 23.322 0.383179 23.3297C0.390955 24.8202 1.64555 26.0074 3.13603 26.0074H34.8872H34.8846Z" fill="#9E5528"/>
<path id="Vector_3" d="M34.8846 32.55C36.3751 32.55 37.6297 31.3628 37.6375 29.8723C37.6375 29.8619 37.6375 29.8516 37.6375 29.8438V28.6177C37.6375 27.1765 36.0951 26.01 34.1925 26.01H3.82814C1.9255 26.01 0.383179 27.1791 0.383179 28.6177V29.8438C0.383179 29.8438 0.383179 29.8645 0.383179 29.8723C0.390955 31.3628 1.64555 32.55 3.13603 32.55H34.8872H34.8846Z" fill="#EFAD60"/>
<path id="Vector_4" d="M32.6605 19.4622L13.7119 23.1301L5.35742 19.4622H32.6605Z" fill="#FEE45A"/>
<path id="Vector_5" d="M9.98697 10.0683C9.98697 10.0683 6.42536 11.2555 7.75772 12.5853C9.08749 13.9151 9.98697 10.0683 9.98697 10.0683Z" fill="#EFC9A3"/>
<path id="Vector_6" d="M15.3398 3.8446C15.3398 3.8446 11.7781 5.03181 13.1105 6.36158C14.4403 7.69134 15.3398 3.8446 15.3398 3.8446Z" fill="#EFC9A3"/>
<path id="Vector_7" d="M13.8779 9.50323C13.8779 9.50323 11.9571 12.8627 13.839 12.8652C15.7209 12.8678 13.8779 9.50323 13.8779 9.50323Z" fill="#EFC9A3"/>
<path id="Vector_8" d="M24.1557 9.50323C24.1557 9.50323 22.2349 12.8627 24.1168 12.8652C25.9987 12.8678 24.1557 9.50323 24.1557 9.50323Z" fill="#EFC9A3"/>
<path id="Vector_9" d="M18.917 9.50323C18.917 9.50323 16.9962 12.8627 18.8781 12.8652C20.76 12.8678 18.917 9.50323 18.917 9.50323Z" fill="#EFC9A3"/>
<path id="Vector_10" d="M18.917 3.56207C18.917 3.56207 16.9962 6.92149 18.8781 6.92408C20.8274 6.92667 18.917 3.56207 18.917 3.56207Z" fill="#EFC9A3"/>
<path id="Vector_11" d="M28.0154 10.0683C28.0154 10.0683 31.577 11.2555 30.2446 12.5853C28.9149 13.9151 28.0154 10.0683 28.0154 10.0683Z" fill="#EFC9A3"/>
<path id="Vector_12" d="M22.4656 3.8446C22.4656 3.8446 26.0272 5.03181 24.6948 6.36158C23.3625 7.69134 22.4656 3.8446 22.4656 3.8446Z" fill="#EFC9A3"/>
<path id="Vector_13" d="M36.4657 17.119H1.61437C0.997443 17.119 0.440132 17.57 0.385697 18.1869C0.326078 18.8816 0.870428 19.4623 1.55216 19.4623H1.74398C2.81194 19.4623 3.50923 20.481 3.2552 21.5178C3.19299 21.7667 3.26038 22.0077 3.37962 22.2177C3.75548 22.8735 4.72754 22.9046 5.07229 22.2333C5.13191 22.1192 5.16302 21.9948 5.15265 21.8626C5.036 20.5639 6.10656 19.4623 7.4104 19.4623H36.4061C37.023 19.4623 37.5804 19.0112 37.6348 18.3943C37.6944 17.6996 37.1501 17.119 36.4683 17.119H36.4657Z" fill="#E94444"/>
</g>
</g>
</g>
</g>
</g>
</g>
</g>
</g>
<defs>
<linearGradient id="paint0_linear_0_1" x1="2.53384" y1="-428.657" x2="2.53383" y2="933" gradientUnits="userSpaceOnUse">
<stop stop-color="white"/>
<stop offset="1" stop-color="#CFD8DC"/>
</linearGradient>
<clipPath id="clip0_0_1">
<rect width="1440" height="1024" fill="white" transform="translate(-655 -91)"/>
</clipPath>
<clipPath id="clip1_0_1">
<rect width="37.2724" height="32" fill="white" transform="translate(0.36499 0.549988)"/>
</clipPath>
</defs>
</svg>
