<svg width="42" height="32" viewBox="0 0 42 32" fill="none" xmlns="http://www.w3.org/2000/svg">
<rect width="42" height="32" fill="#868686"/>
<g id="FoodieGo - Main View" clip-path="url(#clip0_0_1)">
<rect id="Rectangle 24" x="-837" y="-92" width="1440" height="1024" fill="url(#paint0_linear_0_1)"/>
<g id="Mask group">
<mask id="mask0_0_1" style="mask-type:alpha" maskUnits="userSpaceOnUse" x="-661" y="-4" width="1088" height="62">
<rect id="Rectangle 23" x="-661" y="-4" width="1088" height="62" fill="#D9D9D9"/>
</mask>
<g mask="url(#mask0_0_1)">
<g id="Frame 223">
<g id="Group 234">
<g id="Frame 221">
<g id="Food - icons">
<g id="Layer_1" clip-path="url(#clip1_0_1)">
<path id="Vector" d="M21.3727 32C31.3782 32 39.4892 28.1644 39.4892 23.433C39.4892 18.7015 31.3782 14.8659 21.3727 14.8659C11.3673 14.8659 3.25623 18.7015 3.25623 23.433C3.25623 28.1644 11.3673 32 21.3727 32Z" fill="#3D2B29"/>
<path id="Vector_2" d="M41.5862 10.1353L39.4892 23.433H3.25622L1.15918 10.1353H41.5862Z" fill="#3D2B29"/>
<path id="Vector_3" d="M41.5863 10.1353C41.5863 13.277 38.7401 16.0842 34.2686 17.9428C30.7693 19.3996 26.2719 20.2731 21.3727 20.2731C15.9215 20.2731 10.9731 19.1922 7.33628 17.4322C3.52843 15.5866 1.15662 12.9996 1.15662 10.1353C1.15662 8.47371 1.95759 6.90547 3.36771 5.52126C6.71676 2.2422 13.5211 0 21.3753 0C29.2295 0 35.6321 2.11519 39.0771 5.24131C40.6764 6.69032 41.5889 8.36225 41.5889 10.1353H41.5863Z" fill="#533F38"/>
<path id="Vector_4" d="M21.3727 24.3454C32.5363 24.3454 41.5862 19.8077 41.5862 14.2101C41.5862 8.61258 32.5363 4.07486 21.3727 4.07486C10.2091 4.07486 1.15918 8.61258 1.15918 14.2101C1.15918 19.8077 10.2091 24.3454 21.3727 24.3454Z" fill="#533F38"/>
<path id="Vector_5" d="M41.5862 10.1353H1.15918V14.2101H41.5862V10.1353Z" fill="#533F38"/>
<path id="Vector_6" d="M21.3727 0C10.2084 0 1.15918 4.53884 1.15918 10.1353C1.15918 15.7317 10.2084 20.2706 21.3727 20.2706C32.5371 20.2706 41.5862 15.7317 41.5862 10.1353C41.5862 4.53884 32.5371 0 21.3727 0ZM21.3727 19.1611C10.6775 19.1611 2.21418 15.3455 2.21418 10.1353C2.21418 4.92507 10.6775 0.495099 21.3727 0.495099C32.0679 0.495099 40.5312 4.92507 40.5312 10.1353C40.5312 15.3455 32.0679 19.1611 21.3727 19.1611Z" fill="#8B746E"/>
<path id="Vector_7" d="M11.774 4.40406C11.774 4.40406 12.8835 2.41589 15.3745 2.5792C17.8656 2.7425 17.1786 1.49309 19.3664 1.38422C21.5542 1.27535 21.2405 2.41589 22.9176 2.41589C24.5948 2.41589 27.0573 1.84562 28.3223 2.89025C29.5872 3.93489 29.6857 5.04173 31.1296 4.97693C32.5734 4.91212 34.7974 5.45388 34.743 6.86401C34.6886 8.27413 30.5878 12.9426 30.5878 12.9426L19.4727 15.2211L9.64587 7.73238L11.774 4.40147V4.40406Z" fill="#DDA040"/>
<path id="Vector_8" d="M13.026 6.48815C13.026 6.48815 12.6579 3.17539 11.1856 3.17539C9.71321 3.17539 9.46955 1.125 7.84946 0.629904C6.54821 0.230714 3.74869 0.383651 2.71702 2.10483C2.07158 3.18316 2.86737 6.17968 1.15655 7.95789C0.956957 8.16526 -0.422063 10.1379 1.15655 12.6808C2.73517 15.2237 6.5845 15.9883 6.5845 15.9883L13.9358 14.2438L13.026 6.48815Z" fill="#97400B"/>
<path id="Vector_9" d="M30.1522 9.85014C30.1522 9.85014 30.5203 6.53738 31.9926 6.53738C33.465 6.53738 32.651 5.41239 34.2711 4.91729C35.5724 4.5181 38.3719 4.67104 39.4036 6.39222C40.049 7.47055 39.1314 6.59181 40.8396 8.37261C41.0392 8.57999 42.4182 10.5526 40.8396 13.0955C39.318 15.5451 32.7444 17.4244 32.7444 17.4244L25.9244 14.0053L30.1548 9.85273L30.1522 9.85014Z" fill="#44C660"/>
<path id="Vector_10" d="M33.6543 9.65056C33.5843 12.73 14.4569 16.4005 11.4163 9.65056C10.7242 8.11342 10.8616 4.07486 22.5366 4.07486C25.7431 4.07486 26.9873 6.01378 29.214 7.27616C31.5365 8.59296 33.6828 8.35967 33.6543 9.65056Z" fill="white"/>
<path id="Vector_11" d="M23.1017 6.45184C23.1017 8.45557 15.8411 8.45557 15.8411 6.45184C15.8411 4.44812 17.4663 2.82285 19.4701 2.82285C21.4738 2.82285 23.0991 4.44812 23.0991 6.45184H23.1017Z" fill="#FCB712"/>
<path id="Vector_12" d="M20.6754 3.81046C20.8931 3.85971 21.1057 3.93747 21.3001 4.04634L20.9812 4.40665C20.7661 4.29778 20.5302 4.23038 20.2814 4.20965L20.6754 3.81046Z" fill="#FFCE6C"/>
<path id="Vector_13" d="M22.464 5.33722L21.9378 5.56273C21.847 5.25686 21.6786 4.9795 21.4608 4.75917L21.8004 4.39368C22.0881 4.64771 22.3162 4.97172 22.464 5.33722Z" fill="#FFCE6C"/>
<path id="Vector_14" d="M15.2993 19.804C15.009 19.7573 14.7213 19.7107 14.4387 19.6588C14.7239 19.7107 15.009 19.7599 15.2993 19.804Z" fill="#1E8637"/>
<path id="Vector_15" d="M13.4148 19.454C13.153 19.397 12.8938 19.34 12.6398 19.2778C12.8964 19.34 13.153 19.397 13.4148 19.454Z" fill="#1E8637"/>
<path id="Vector_16" d="M14.3453 19.6407C14.0706 19.5888 13.7984 19.537 13.5288 19.4799C13.7984 19.537 14.0706 19.5914 14.3453 19.6407Z" fill="#1E8637"/>
<path id="Vector_17" d="M9.16111 18.2098C8.96411 18.1346 8.7697 18.0595 8.57788 17.9791C8.7697 18.0569 8.96411 18.1346 9.16111 18.2098Z" fill="#1E8637"/>
<path id="Vector_18" d="M9.95436 18.4975C9.7444 18.4249 9.53703 18.3524 9.33484 18.2772C9.53962 18.3524 9.74699 18.4275 9.95436 18.4975Z" fill="#1E8637"/>
<path id="Vector_19" d="M7.33362 17.4244C7.33362 17.4244 7.33621 17.4296 7.3388 17.4322C7.44508 17.484 7.55654 17.5332 7.66541 17.5825C7.55395 17.5307 7.44508 17.4788 7.33621 17.4244H7.33362Z" fill="#1E8637"/>
<path id="Vector_20" d="M33.8228 17.0848C32.7341 15.7395 30.2948 14.3449 30.0978 13.8032C28.9625 10.6874 26.5337 11.9887 24.8436 11.4262C23.1561 10.8637 20.7791 11.237 19.0916 10.1327C17.4041 9.02844 14.2158 8.62148 12.3002 9.54947C11.1156 10.1223 11.9477 10.5293 8.55196 11.364C5.18217 12.1909 6.56378 15.9313 6.58452 15.9883C10.0787 17.961 15.3745 19.1611 21.3701 19.1611C26.1526 19.1611 30.4867 18.3964 33.8202 17.0848H33.8228Z" fill="#1E8637"/>
<path id="Vector_21" d="M8.39643 17.9039C8.21239 17.8262 8.02835 17.7484 7.84949 17.6655C8.02835 17.7458 8.21239 17.8262 8.39643 17.9039Z" fill="#1E8637"/>
<path id="Vector_22" d="M21.3727 20.2706C19.6308 20.2706 17.9381 20.1591 16.3258 19.9517C17.9407 20.1591 19.6308 20.2706 21.3727 20.2706C21.7201 20.2706 22.0622 20.2654 22.4044 20.2576C22.0622 20.2654 21.7175 20.2706 21.3727 20.2706Z" fill="#1E8637"/>
<path id="Vector_23" d="M30.9273 19.0678C30.7044 19.1274 30.4763 19.1871 30.2482 19.2415C30.4763 19.1845 30.7044 19.1274 30.9273 19.0678Z" fill="#1E8637"/>
<path id="Vector_24" d="M31.7439 18.8345C31.5417 18.8967 31.3343 18.9537 31.127 19.0134C31.3343 18.9563 31.5391 18.8967 31.7439 18.8345Z" fill="#1E8637"/>
<path id="Vector_25" d="M30.0927 19.2804C29.8127 19.3478 29.5276 19.4126 29.2399 19.4722C29.5276 19.41 29.8101 19.3478 30.0927 19.2804Z" fill="#1E8637"/>
<path id="Vector_26" d="M33.3562 18.2979C33.154 18.3731 32.9492 18.4457 32.7418 18.5157C32.9492 18.4457 33.154 18.3705 33.3562 18.2979Z" fill="#1E8637"/>
<path id="Vector_27" d="M29.2398 19.4748C28.641 19.6018 28.0267 19.7158 27.3994 19.8117C28.0267 19.7132 28.641 19.6018 29.2398 19.4748Z" fill="#1E8637"/>
<path id="Vector_28" d="M32.5475 18.5805C32.3505 18.6453 32.1535 18.7101 31.9539 18.7723C32.1535 18.7101 32.353 18.6453 32.5475 18.5805Z" fill="#1E8637"/>
<path id="Vector_29" d="M33.5013 18.2435C33.7631 18.145 34.0198 18.0439 34.2712 17.9402C34.0198 18.0439 33.7631 18.1476 33.5013 18.2461V18.2435Z" fill="#1E8637"/>
<path id="Vector_30" d="M23.3868 20.2213C23.0758 20.2369 22.7621 20.2498 22.4485 20.2576C22.7647 20.2498 23.0758 20.2369 23.3868 20.2213Z" fill="#1E8637"/>
<path id="Vector_31" d="M26.3003 19.9673C26.0515 19.9984 25.8001 20.0269 25.546 20.0554C25.8001 20.0295 26.0515 19.9984 26.3003 19.9673Z" fill="#1E8637"/>
<path id="Vector_32" d="M27.3165 19.8247C27.0417 19.8662 26.7643 19.9077 26.4844 19.9439C26.7643 19.9077 27.0417 19.8688 27.3165 19.8247Z" fill="#1E8637"/>
</g>
</g>
</g>
</g>
</g>
</g>
</g>
</g>
<defs>
<linearGradient id="paint0_linear_0_1" x1="-179.466" y1="-429.657" x2="-179.466" y2="932" gradientUnits="userSpaceOnUse">
<stop stop-color="white"/>
<stop offset="1" stop-color="#CFD8DC"/>
</linearGradient>
<clipPath id="clip0_0_1">
<rect width="1440" height="1024" fill="white" transform="translate(-837 -92)"/>
</clipPath>
<clipPath id="clip1_0_1">
<rect width="41.1762" height="32" fill="white" transform="translate(0.410034)"/>
</clipPath>
</defs>
</svg>
