<svg width="46" height="32" viewBox="0 0 46 32" fill="none" xmlns="http://www.w3.org/2000/svg">
<rect width="46" height="32" fill="#868686"/>
<g id="FoodieGo - Main View" clip-path="url(#clip0_0_1)">
<rect id="Rectangle 24" x="-559" y="-92" width="1440" height="1024" fill="url(#paint0_linear_0_1)"/>
<g id="Mask group">
<mask id="mask0_0_1" style="mask-type:alpha" maskUnits="userSpaceOnUse" x="-383" y="-4" width="1088" height="62">
<rect id="Rectangle 23" x="-383" y="-4" width="1088" height="62" fill="#D9D9D9"/>
</mask>
<g mask="url(#mask0_0_1)">
<g id="Frame 223">
<g id="Group 230">
<g id="Frame 221">
<g id="Food - icons">
<g id="Layer_1" clip-path="url(#clip1_0_1)">
<path id="Vector" d="M16.838 25.4082C24.782 25.4082 31.2218 22.3629 31.2218 18.6064C31.2218 14.8499 24.782 11.8046 16.838 11.8046C8.89407 11.8046 2.45422 14.8499 2.45422 18.6064C2.45422 22.3629 8.89407 25.4082 16.838 25.4082Z" fill="#3D2B29"/>
<path id="Vector_2" d="M32.8885 8.04602L31.2218 18.6064H2.45679L0.790039 8.04602H32.8885Z" fill="#3D2B29"/>
<path id="Vector_3" d="M32.8885 8.04601C32.8885 12.4915 25.7031 16.092 16.8406 16.092C7.97805 16.092 0.790039 12.4915 0.790039 8.04601C0.790039 6.72661 1.42511 5.47979 2.54492 4.38072C5.20446 1.7808 10.6065 0 16.8406 0C23.0747 0 28.1605 1.67971 30.8952 4.16039C32.1653 5.3113 32.8885 6.63589 32.8885 8.04601Z" fill="#533F38"/>
<path id="Vector_4" d="M16.838 19.327C25.701 19.327 32.8859 15.7247 32.8859 11.281C32.8859 6.83731 25.701 3.23499 16.838 3.23499C7.97495 3.23499 0.790039 6.83731 0.790039 11.281C0.790039 15.7247 7.97495 19.327 16.838 19.327Z" fill="#533F38"/>
<path id="Vector_5" d="M32.8885 8.04602H0.790039V11.281H32.8885V8.04602Z" fill="#533F38"/>
<path id="Vector_6" d="M32.8885 8.04601C32.8885 12.4915 25.7031 16.092 16.8406 16.092C7.97805 16.092 0.790039 12.4915 0.790039 8.04601C0.790039 6.72661 1.42511 5.47979 2.54492 4.38072C4.75083 3.32572 8.61053 1.83783 11.6252 2.56104C16.1096 3.64196 17.2735 3.81823 19.7645 3.2324C22.2556 2.64658 27.738 2.48587 28.9744 3.45014C29.3295 3.7275 30.0424 3.95043 30.8952 4.1578C32.1653 5.30871 32.8885 6.6333 32.8885 8.04342V8.04601Z" fill="#E68D25"/>
<path id="Vector_7" d="M17.5171 8.67849C17.5171 8.67849 16.0629 8.71219 15.2956 9.30061C14.5283 9.88902 14.4065 10.8585 14.4065 10.8585C14.4065 10.8585 13.5589 9.76719 14.4065 8.91956C15.2541 8.07193 17.5171 8.67849 17.5171 8.67849Z" fill="#70E970"/>
<path id="Vector_8" d="M16.838 0C7.97546 0 0.790039 3.60308 0.790039 8.04601C0.790039 12.4889 7.97546 16.092 16.838 16.092C25.7005 16.092 32.8859 12.4889 32.8859 8.04601C32.8859 3.60308 25.7031 0 16.838 0ZM16.838 15.2133C8.34873 15.2133 1.6273 12.1831 1.6273 8.04601C1.6273 3.90895 8.34873 0.394006 16.838 0.394006C25.3273 0.394006 32.0487 3.91154 32.0487 8.0486C32.0487 12.1857 25.3273 15.2133 16.838 15.2133Z" fill="#8B746E"/>
<path id="Vector_9" d="M22.9865 5.08579C23.7753 5.08579 24.4148 4.44633 24.4148 3.65752C24.4148 2.86871 23.7753 2.22925 22.9865 2.22925C22.1977 2.22925 21.5582 2.86871 21.5582 3.65752C21.5582 4.44633 22.1977 5.08579 22.9865 5.08579Z" fill="#E8E158"/>
<path id="Vector_10" d="M17.6675 7.17505C18.4563 7.17505 19.0958 6.53559 19.0958 5.74678C19.0958 4.95797 18.4563 4.31851 17.6675 4.31851C16.8787 4.31851 16.2393 4.95797 16.2393 5.74678C16.2393 6.53559 16.8787 7.17505 17.6675 7.17505Z" fill="#E8E158"/>
<path id="Vector_11" d="M9.1989 4.61402C9.98771 4.61402 10.6272 3.97456 10.6272 3.18575C10.6272 2.39694 9.98771 1.75748 9.1989 1.75748C8.41009 1.75748 7.77063 2.39694 7.77063 3.18575C7.77063 3.97456 8.41009 4.61402 9.1989 4.61402Z" fill="#E8E158"/>
<path id="Vector_12" d="M12.2939 8.23784C12.8408 8.23784 13.2841 7.79452 13.2841 7.24764C13.2841 6.70077 12.8408 6.25745 12.2939 6.25745C11.747 6.25745 11.3037 6.70077 11.3037 7.24764C11.3037 7.79452 11.747 8.23784 12.2939 8.23784Z" fill="#E8E158"/>
<path id="Vector_13" d="M16.6773 12.7948C17.2242 12.7948 17.6675 12.3515 17.6675 11.8046C17.6675 11.2577 17.2242 10.8144 16.6773 10.8144C16.1305 10.8144 15.6871 11.2577 15.6871 11.8046C15.6871 12.3515 16.1305 12.7948 16.6773 12.7948Z" fill="#E8E158"/>
<path id="Vector_14" d="M25.3505 9.15285C25.8974 9.15285 26.3407 8.70952 26.3407 8.16265C26.3407 7.61578 25.8974 7.17245 25.3505 7.17245C24.8037 7.17245 24.3604 7.61578 24.3604 8.16265C24.3604 8.70952 24.8037 9.15285 25.3505 9.15285Z" fill="#E8E158"/>
<path id="Vector_15" d="M6.90227 8.64738C7.2888 8.64738 7.60215 8.33403 7.60215 7.9475C7.60215 7.56097 7.2888 7.24762 6.90227 7.24762C6.51574 7.24762 6.20239 7.56097 6.20239 7.9475C6.20239 8.33403 6.51574 8.64738 6.90227 8.64738Z" fill="#E8E158"/>
<path id="Vector_16" d="M9.90142 12.5045C10.2879 12.5045 10.6013 12.1911 10.6013 11.8046C10.6013 11.4181 10.2879 11.1047 9.90142 11.1047C9.51488 11.1047 9.20154 11.4181 9.20154 11.8046C9.20154 12.1911 9.51488 12.5045 9.90142 12.5045Z" fill="#E8E158"/>
<path id="Vector_17" d="M22.9865 11.9809C23.373 11.9809 23.6864 11.6675 23.6864 11.281C23.6864 10.8945 23.373 10.5811 22.9865 10.5811C22.6 10.5811 22.2866 10.8945 22.2866 11.281C22.2866 11.6675 22.6 11.9809 22.9865 11.9809Z" fill="#E8E158"/>
<path id="Vector_18" d="M21.7086 9.6039C21.7086 9.6039 23.492 9.64538 24.4356 10.3686C25.3765 11.0918 25.5268 12.2816 25.5268 12.2816C25.5268 12.2816 26.5689 10.944 25.5268 9.902C24.4848 8.85996 21.7112 9.6039 21.7112 9.6039H21.7086Z" fill="#70E970"/>
<path id="Vector_19" d="M29.8272 5.57311C29.8272 5.57311 28.8215 5.59644 28.2901 6.0034C27.7587 6.41037 27.6758 7.08173 27.6758 7.08173C27.6758 7.08173 27.0899 6.32742 27.6758 5.7416C28.2616 5.15577 29.8272 5.57311 29.8272 5.57311Z" fill="#70E970"/>
<path id="Vector_20" d="M5.75401 5.57311C5.75401 5.57311 4.74826 5.59644 4.21687 6.0034C3.68548 6.41037 3.60253 7.08173 3.60253 7.08173C3.60253 7.08173 3.01671 6.32742 3.60253 5.7416C4.18835 5.15577 5.75401 5.57311 5.75401 5.57311Z" fill="#70E970"/>
<path id="Vector_21" d="M9.51525 9.82681C9.51525 9.82681 8.06106 9.86051 7.29378 10.4489C6.52651 11.0373 6.40468 12.0068 6.40468 12.0068C6.40468 12.0068 5.55705 10.9155 6.40468 10.0679C7.25231 9.22025 9.51525 9.82681 9.51525 9.82681Z" fill="#70E970"/>
<path id="Vector_22" d="M10.3888 6.04745C10.3888 6.04745 8.93459 6.01376 8.16732 5.42534C7.40004 4.83692 7.27821 3.86746 7.27821 3.86746C7.27821 3.86746 6.43058 4.95875 7.27821 5.80638C8.12584 6.65402 10.3888 6.04745 10.3888 6.04745Z" fill="#70E970"/>
<path id="Vector_23" d="M14.802 5.62363C14.8537 5.51507 14.573 5.27329 14.1749 5.08361C13.7769 4.89392 13.4122 4.82815 13.3605 4.93671C13.3088 5.04527 13.5895 5.28704 13.9876 5.47673C14.3856 5.66642 14.7502 5.73219 14.802 5.62363Z" fill="#B9C9B9"/>
<path id="Vector_24" d="M13.0145 11.6241C13.0662 11.5156 12.7855 11.2738 12.3874 11.0841C11.9894 10.8944 11.6248 10.8287 11.573 10.9372C11.5213 11.0458 11.8021 11.2876 12.2001 11.4772C12.5981 11.6669 12.9628 11.7327 13.0145 11.6241Z" fill="#B9C9B9"/>
<path id="Vector_25" d="M4.78915 9.49646C4.84088 9.3879 4.56014 9.14613 4.1621 8.95644C3.76405 8.76675 3.39943 8.70098 3.3477 8.80954C3.29597 8.9181 3.57671 9.15988 3.97475 9.34956C4.3728 9.53925 4.73742 9.60502 4.78915 9.49646Z" fill="#B9C9B9"/>
<path id="Vector_26" d="M6.47628 4.96121C6.52802 4.85266 6.24728 4.61088 5.84923 4.42119C5.45118 4.2315 5.08657 4.16574 5.03483 4.27429C4.9831 4.38285 5.26384 4.62463 5.66189 4.81432C6.05993 5.004 6.42455 5.06977 6.47628 4.96121Z" fill="#B9C9B9"/>
<path id="Vector_27" d="M23.007 7.98465C23.0588 7.87609 22.778 7.63432 22.38 7.44463C21.9819 7.25494 21.6173 7.18917 21.5656 7.29773C21.5139 7.40629 21.7946 7.64807 22.1926 7.83775C22.5907 8.02744 22.9553 8.09321 23.007 7.98465Z" fill="#B9C9B9"/>
<path id="Vector_28" d="M27.3614 4.96033C27.4132 4.85177 27.1324 4.60999 26.7344 4.42031C26.3363 4.23062 25.9717 4.16485 25.92 4.27341C25.8682 4.38197 26.149 4.62374 26.547 4.81343C26.9451 5.00312 27.3097 5.06889 27.3614 4.96033Z" fill="#B9C9B9"/>
<path id="Vector_29" d="M29.1764 10.0067C29.2281 9.8981 28.9473 9.65632 28.5493 9.46663C28.1513 9.27695 27.7866 9.21118 27.7349 9.31973C27.6832 9.42829 27.9639 9.67007 28.362 9.85976C28.76 10.0494 29.1246 10.1152 29.1764 10.0067Z" fill="#B9C9B9"/>
<path id="Vector_30" d="M20.6685 12.8906C20.7203 12.7821 20.4395 12.5403 20.0415 12.3506C19.6434 12.1609 19.2788 12.0951 19.2271 12.2037C19.1754 12.3123 19.4561 12.554 19.8541 12.7437C20.2522 12.9334 20.6168 12.9992 20.6685 12.8906Z" fill="#B9C9B9"/>
<path id="Vector_31" d="M34.729 12.0716C36.1883 17.5514 32.6164 24.742 19.145 27.4041C18.681 27.4949 18.5358 28.0833 18.9039 28.3814C21.6568 30.6002 25.6902 32 30.1901 32C38.4876 32 45.2142 27.2382 45.2142 21.3644C45.2142 16.7893 41.1316 12.8907 35.4055 11.3899C34.9908 11.281 34.6175 11.6594 34.729 12.0742V12.0716Z" fill="#E8C696"/>
<path id="Vector_32" d="M41.3311 18.7879C41.772 18.7879 42.1295 18.5128 42.1295 18.1735C42.1295 17.8342 41.772 17.5592 41.3311 17.5592C40.8902 17.5592 40.5327 17.8342 40.5327 18.1735C40.5327 18.5128 40.8902 18.7879 41.3311 18.7879Z" fill="#F1DABA"/>
<path id="Vector_33" d="M24.6636 30.3773C25.1045 30.3773 25.462 30.1023 25.462 29.763C25.462 29.4237 25.1045 29.1487 24.6636 29.1487C24.2227 29.1487 23.8652 29.4237 23.8652 29.763C23.8652 30.1023 24.2227 30.3773 24.6636 30.3773Z" fill="#F1DABA"/>
<path id="Vector_34" d="M31.932 30.6158C32.373 30.6158 32.7304 30.415 32.7304 30.1673C32.7304 29.9197 32.373 29.7189 31.932 29.7189C31.4911 29.7189 31.1337 29.9197 31.1337 30.1673C31.1337 30.415 31.4911 30.6158 31.932 30.6158Z" fill="#F1DABA"/>
<path id="Vector_35" d="M36.8287 22.8264C37.2696 22.8264 37.627 22.6256 37.627 22.378C37.627 22.1303 37.2696 21.9295 36.8287 21.9295C36.3877 21.9295 36.0303 22.1303 36.0303 22.378C36.0303 22.6256 36.3877 22.8264 36.8287 22.8264Z" fill="#F1DABA"/>
<path id="Vector_36" d="M27.8934 29.3068C28.5276 29.3068 29.0418 28.8634 29.0418 28.3166C29.0418 27.7697 28.5276 27.3264 27.8934 27.3264C27.2592 27.3264 26.7451 27.7697 26.7451 28.3166C26.7451 28.8634 27.2592 29.3068 27.8934 29.3068Z" fill="#DA9A43"/>
<path id="Vector_37" d="M28.3756 29.146C29.0098 29.146 29.5239 28.7387 29.5239 28.2362C29.5239 27.7337 29.0098 27.3264 28.3756 27.3264C27.7414 27.3264 27.2273 27.7337 27.2273 28.2362C27.2273 28.7387 27.7414 29.146 28.3756 29.146Z" fill="#9A5E28"/>
<path id="Vector_38" d="M36.3335 29.3327C36.9849 29.3327 37.5129 28.8778 37.5129 28.3166C37.5129 27.7554 36.9849 27.3004 36.3335 27.3004C35.6821 27.3004 35.1541 27.7554 35.1541 28.3166C35.1541 28.8778 35.6821 29.3327 36.3335 29.3327Z" fill="#DA9A43"/>
<path id="Vector_39" d="M36.8286 29.1668C37.48 29.1668 38.008 28.749 38.008 28.2336C38.008 27.7182 37.48 27.3004 36.8286 27.3004C36.1772 27.3004 35.6492 27.7182 35.6492 28.2336C35.6492 28.749 36.1772 29.1668 36.8286 29.1668Z" fill="#9A5E28"/>
<path id="Vector_40" d="M38.6898 16.7271C39.3412 16.7271 39.8692 16.2722 39.8692 15.711C39.8692 15.1498 39.3412 14.6949 38.6898 14.6949C38.0384 14.6949 37.5104 15.1498 37.5104 15.711C37.5104 16.2722 38.0384 16.7271 38.6898 16.7271Z" fill="#DA9A43"/>
<path id="Vector_41" d="M39.1848 16.5638C39.8362 16.5638 40.3642 16.146 40.3642 15.6306C40.3642 15.1152 39.8362 14.6974 39.1848 14.6974C38.5334 14.6974 38.0054 15.1152 38.0054 15.6306C38.0054 16.146 38.5334 16.5638 39.1848 16.5638Z" fill="#9A5E28"/>
<path id="Vector_42" d="M32.5722 26.6991C32.986 26.6991 33.3214 26.4101 33.3214 26.0536C33.3214 25.6971 32.986 25.4082 32.5722 25.4082C32.1585 25.4082 31.8231 25.6971 31.8231 26.0536C31.8231 26.4101 32.1585 26.6991 32.5722 26.6991Z" fill="#DA9A43"/>
<path id="Vector_43" d="M32.8885 26.5954C33.3023 26.5954 33.6377 26.3296 33.6377 26.0018C33.6377 25.6739 33.3023 25.4082 32.8885 25.4082C32.4748 25.4082 32.1394 25.6739 32.1394 26.0018C32.1394 26.3296 32.4748 26.5954 32.8885 26.5954Z" fill="#9A5E28"/>
<path id="Vector_44" d="M39.711 21.9295C40.1248 21.9295 40.4602 21.6406 40.4602 21.2841C40.4602 20.9276 40.1248 20.6386 39.711 20.6386C39.2973 20.6386 38.9619 20.9276 38.9619 21.2841C38.9619 21.6406 39.2973 21.9295 39.711 21.9295Z" fill="#DA9A43"/>
<path id="Vector_45" d="M40.0248 21.8258C40.4385 21.8258 40.7739 21.5601 40.7739 21.2322C40.7739 20.9044 40.4385 20.6386 40.0248 20.6386C39.611 20.6386 39.2756 20.9044 39.2756 21.2322C39.2756 21.5601 39.611 21.8258 40.0248 21.8258Z" fill="#9A5E28"/>
</g>
</g>
</g>
</g>
</g>
</g>
</g>
</g>
<defs>
<linearGradient id="paint0_linear_0_1" x1="98.5338" y1="-429.657" x2="98.5338" y2="932" gradientUnits="userSpaceOnUse">
<stop stop-color="white"/>
<stop offset="1" stop-color="#CFD8DC"/>
</linearGradient>
<clipPath id="clip0_0_1">
<rect width="1440" height="1024" fill="white" transform="translate(-559 -92)"/>
</clipPath>
<clipPath id="clip1_0_1">
<rect width="44.4241" height="32" fill="white" transform="translate(0.790039)"/>
</clipPath>
</defs>
</svg>
