<svg width="36" height="32" viewBox="0 0 36 32" fill="none" xmlns="http://www.w3.org/2000/svg">
<rect width="36" height="32" fill="#868686"/>
<g id="FoodieGo - Main View" clip-path="url(#clip0_0_1)">
<rect id="Rectangle 24" x="-380" y="-92" width="1440" height="1024" fill="url(#paint0_linear_0_1)"/>
<g id="Mask group">
<mask id="mask0_0_1" style="mask-type:alpha" maskUnits="userSpaceOnUse" x="-204" y="-4" width="1088" height="62">
<rect id="Rectangle 23" x="-204" y="-4" width="1088" height="62" fill="#D9D9D9"/>
</mask>
<g mask="url(#mask0_0_1)">
<g id="Frame 223">
<g id="Group 229">
<g id="Frame 221">
<g id="Food - icons">
<g id="Layer_1" clip-path="url(#clip1_0_1)">
<path id="Vector" d="M31.5693 15.9987C31.5693 24.8353 24.5524 32 15.8972 32C7.24203 32 0.225098 24.8353 0.225098 15.9987C0.225098 7.16209 7.24203 0 15.8972 0C24.5524 0 31.5693 7.16209 31.5693 15.9987Z" fill="#131C21"/>
<path id="Vector_2" d="M19.7777 0C19.7777 0 19.7543 0 19.7414 0C19.7362 0 19.7284 0 19.7232 0H15.568C8.77402 1.8482 3.77637 8.61887 3.77637 15.9987C3.77637 23.3785 8.77402 29.5867 15.568 31.4349V31.9974H19.3681C19.5029 32 19.6377 31.9974 19.7751 31.9974C28.6117 31.9974 35.7764 24.8327 35.7764 15.9961C35.7764 7.1595 28.6143 0 19.7777 0Z" fill="#131C21"/>
<path id="Vector_3" d="M29.7653 15.9987C29.7653 24.1899 23.4093 30.831 15.5681 30.831C7.72688 30.831 1.37354 24.1899 1.37354 15.9987C1.37354 7.80754 7.72947 1.16388 15.5681 1.16388C23.4067 1.16388 29.7653 7.80495 29.7653 15.9987Z" fill="#F1FAFF"/>
<path id="Vector_4" d="M22.7974 9.96421C21.929 8.31561 20.2 7.17766 19.3991 6.71626C19.1295 6.56073 18.8184 6.49592 18.5125 6.52962C18.5125 6.52962 10.4665 4.17077 7.81477 10.0705C5.1656 15.9702 6.73385 16.9786 6.05989 18.399C5.39112 19.8118 5.55961 23.1686 8.78423 24.1303C8.79201 24.1329 8.79978 24.1355 8.81015 24.138C8.82052 24.1406 8.8283 24.1432 8.83867 24.1458C8.84126 24.1458 8.84644 24.1458 8.84903 24.1484C9.30007 24.2832 10.0233 24.3713 11.1042 24.4984C11.1042 24.4984 16.1511 25.7193 19.2098 24.2936C22.2711 22.8679 24.6456 21.7662 25.037 19.7262C25.4284 17.6862 25.8146 14.179 25.8146 14.179C26.1957 12.9789 23.9483 12.1546 22.7948 9.96421H22.7974Z" fill="#D6E4EA"/>
<path id="Vector_5" d="M25.3534 14.2594C25.3534 14.2594 25.3197 14.6923 25.2549 15.3403C25.2497 15.3947 25.2445 15.4518 25.2393 15.5114C25.2108 15.7913 25.1797 16.1024 25.1434 16.4342C25.1331 16.5223 25.1227 16.613 25.1149 16.7038C25.0838 16.963 25.0527 17.23 25.019 17.4995C25.006 17.6136 24.9905 17.7302 24.9749 17.8469C24.9438 18.0828 24.9127 18.3187 24.8764 18.5468C24.8583 18.679 24.8375 18.8112 24.8168 18.9382C24.7805 19.1689 24.7416 19.3866 24.7028 19.5914C24.7002 19.6096 24.695 19.6277 24.6898 19.6458C24.6587 19.8014 24.6146 19.9491 24.5576 20.0917C24.1325 21.1908 23.0438 21.9969 21.574 22.7797C21.3744 22.8886 21.1671 22.9949 20.9519 23.1012C20.6227 23.2671 20.278 23.4304 19.9228 23.5989C19.7051 23.7025 19.4822 23.8062 19.2541 23.9125C19.2048 23.9358 19.153 23.9592 19.1037 23.9825C19.0726 23.998 19.0389 24.011 19.0078 24.024C19.0052 24.0266 19.0026 24.0266 19 24.0266C18.8238 24.1069 18.6423 24.1769 18.4531 24.2365C18.2587 24.2987 18.0591 24.3532 17.8543 24.4024C17.6495 24.4491 17.4396 24.488 17.2296 24.5217C17.0974 24.5398 16.9652 24.558 16.8304 24.5735H16.8278L16.6982 24.5865H16.6956C16.3301 24.6253 15.9621 24.6435 15.5992 24.6461C15.5655 24.6487 15.5343 24.6487 15.5006 24.6487H15.4203C15.3062 24.6487 15.1948 24.6461 15.0833 24.6461C14.7852 24.6383 14.4949 24.6228 14.2149 24.6046L14.1242 24.5968C13.865 24.5761 13.6136 24.5528 13.3777 24.5243C13.2559 24.5113 13.1392 24.4957 13.0277 24.4828C12.0894 24.3584 11.431 24.208 11.3247 24.1821C11.5062 24.2002 11.7032 24.2236 11.9105 24.2495C14.9537 24.6098 16.3742 18.4716 17.0896 16.219C17.4137 15.1951 19.0752 14.9359 20.8249 14.8504C20.9545 14.8426 21.0867 14.8374 21.2163 14.8322C21.5533 14.8193 21.8929 14.8115 22.2247 14.8037C22.3543 14.8011 22.4813 14.7985 22.6083 14.7959C22.8908 14.7908 23.163 14.783 23.4196 14.7726C23.5518 14.7648 23.6815 14.7597 23.8033 14.7519C24.1714 14.726 24.4954 14.6897 24.7494 14.63C24.9205 14.5912 25.0605 14.5393 25.1642 14.4745C25.2627 14.4175 25.3275 14.3449 25.3534 14.2594Z" fill="#7DAC40"/>
<path id="Vector_6" d="M18.4297 6.90806L14.9122 20.9264C14.9122 20.9264 12.2837 24.742 9.1317 23.8399C8.64956 23.7026 8.23741 23.5081 7.88747 23.2748C7.80452 23.2204 7.72417 23.1634 7.64899 23.1038C5.94855 21.7714 5.93818 19.4229 6.46438 18.3161C7.10983 16.95 5.60379 15.9806 8.14928 10.3115C9.71752 6.82252 13.2454 6.33779 15.7287 6.48035C16.0398 6.4985 16.3379 6.52701 16.61 6.56071C17.6987 6.69291 18.4297 6.90806 18.4297 6.90806Z" fill="#FFBF7E"/>
<path id="Vector_7" d="M25.3534 14.2594C24.9879 15.4129 17.8051 13.9665 17.0897 16.219C16.3742 18.4716 14.9537 24.6098 11.9106 24.2495C11.698 24.2236 11.4984 24.2002 11.3118 24.1795C8.78963 23.884 8.29971 23.8088 8.62632 22.7849C8.97367 21.6859 10.1972 21.7714 9.61911 19.6536C9.04107 17.5332 8.35415 12.2375 10.516 9.77755C12.3279 7.7168 16.9756 7.06358 18.4298 6.90805C18.7253 6.87695 19.0234 6.93916 19.2826 7.08691C20.0525 7.53017 21.7141 8.62405 22.5487 10.2104C23.6582 12.3153 25.7189 13.1059 25.3534 14.2594Z" fill="#FD8C59"/>
<g id="Group" opacity="0.4">
<path id="Vector_8" d="M15.7286 6.48035C13.7456 6.93138 11.4646 7.70643 10.2748 9.01546C7.90814 11.6206 8.15958 17.274 8.81021 19.5836C9.20421 20.986 8.8128 21.3955 8.35917 21.8699C8.1181 22.1239 7.86667 22.3857 7.73187 22.8057C7.69818 22.9016 7.66966 23.0027 7.64893 23.1038C7.7241 23.1634 7.80445 23.2204 7.8874 23.2748C7.89518 23.1712 7.92629 23.0441 7.97813 22.886C8.09477 22.5231 8.31511 22.2924 8.5484 22.0488C9.01239 21.5614 9.49453 21.0586 9.05905 19.5136C8.42138 17.2507 8.16735 11.7217 10.4666 9.18914C11.7808 7.74272 14.5077 6.96249 16.61 6.5607C16.3378 6.52701 16.0397 6.49849 15.7286 6.48035Z" fill="white"/>
</g>
<path id="Vector_9" d="M15.5681 1.16388C7.72947 1.16388 1.37354 7.80495 1.37354 15.9987C1.37354 24.1925 7.72947 30.831 15.5681 30.831C23.4067 30.831 29.7653 24.1899 29.7653 15.9987C29.7653 7.80754 23.4093 1.16388 15.5681 1.16388ZM28.4925 17.5125L28.4485 17.7095C28.4174 17.8443 28.3966 17.9532 28.3785 18.0595L28.3629 18.145C28.2307 19.016 28.0156 19.8766 27.7253 20.6983C27.6682 20.8616 27.6319 20.9238 27.6319 20.9238C27.3572 21.3333 27.2639 21.7429 27.1887 22.0747C27.1006 22.4661 27.0513 22.6476 26.8362 22.8186L26.7221 22.9094L26.6469 23.0364C26.5614 23.1841 26.4733 23.3293 26.3825 23.4719C26.2918 23.617 26.2011 23.757 26.1052 23.897C26.03 24.0058 25.9548 24.1147 25.8771 24.221C25.3846 24.5346 25.0865 24.9831 24.8169 25.3849C24.6795 25.5922 24.5499 25.7866 24.4047 25.9474C24.2803 26.0536 24.1766 26.1444 24.0781 26.2325L23.9355 26.3595C23.8008 26.4787 23.6634 26.598 23.5234 26.7094C23.4612 26.7613 23.4119 26.8002 23.3756 26.8261C22.7561 26.8961 22.4373 27.386 22.2429 27.6867C22.204 27.7463 22.1522 27.8267 22.1107 27.8811L21.9577 27.8552L21.7426 27.9537C21.6337 28.0055 21.5456 28.047 21.4626 28.0911L21.3667 28.1377C20.9416 28.3606 20.501 28.5628 20.0577 28.7339C19.8659 28.8065 19.7233 28.8557 19.6274 28.8817L19.6015 28.8894L19.5756 28.8972C19.2749 29.0009 18.3624 29.3171 18.0203 29.3353H17.9658L17.9166 29.3482C17.7274 29.3845 17.5381 29.4156 17.3489 29.4416C17.1934 29.4649 17.0353 29.4856 16.8771 29.5012C16.7683 29.4804 16.6361 29.4623 16.4728 29.4623C16.2784 29.4623 16.071 29.4934 15.8869 29.5245C15.5707 29.5504 15.2596 29.5634 14.9564 29.5634C14.7982 29.5634 14.6505 29.5608 14.5105 29.553C14.3679 29.5271 14.2461 29.5064 14.1295 29.4882L14.1035 29.483C12.9837 29.3508 11.8873 29.0683 10.8426 28.638C10.6171 28.5447 10.5316 28.498 10.4979 28.4773L10.3372 28.3736L10.1428 28.3555C9.77985 28.3244 9.47917 28.0885 9.13182 27.8111C8.90112 27.6271 8.66264 27.4378 8.3801 27.2927C8.23753 27.1916 8.10015 27.0879 7.96535 26.9868C7.67244 26.7639 7.38471 26.5254 7.11254 26.2792C6.98812 26.1651 6.86888 26.0536 6.75223 25.9396C6.55004 25.6907 6.29601 25.5145 6.05235 25.3434C5.62724 25.0479 5.44061 24.8924 5.41209 24.6357L5.39395 24.4569L5.29804 24.3013C5.19176 24.138 5.09844 23.9981 5.0129 23.8659L4.92736 23.7389C4.71999 23.4278 4.52299 23.1038 4.34154 22.772C4.24822 22.6061 4.16268 22.4376 4.07973 22.2717L4.00197 22.1162L3.86458 22.0073C3.69091 21.8699 3.63388 21.6081 3.55871 21.1908C3.49391 20.8279 3.41874 20.4209 3.19581 20.0373C3.14915 19.8792 3.10768 19.721 3.0662 19.5629C2.9677 19.187 2.88475 18.7982 2.81736 18.4094C2.79144 18.2513 2.76811 18.0983 2.74996 17.9428C2.83291 17.3337 2.74219 16.7608 2.66183 16.2527C2.59184 15.8121 2.52704 15.3999 2.6048 15.0552C2.65146 14.8141 2.67479 14.6171 2.69553 14.446L2.70849 14.3501C2.76552 13.8576 2.84846 13.3677 2.95474 12.8907C2.98326 12.7611 3.01695 12.6367 3.04547 12.5563L3.0662 12.4941L3.07657 12.4293C3.0999 12.2738 3.19581 12.082 3.28654 11.8954C3.4317 11.5973 3.60537 11.2421 3.58204 10.8429C3.61315 10.76 3.64944 10.6745 3.68313 10.5915C3.9242 10.0109 4.20675 9.44059 4.5204 8.90661C4.55409 8.85218 4.58002 8.8107 4.59816 8.78219C5.16325 8.37522 5.44579 7.79199 5.67131 7.32281C5.88646 6.87696 6.02902 6.59701 6.26232 6.48296L6.37896 6.42593L6.46969 6.33261C6.60189 6.20041 6.73409 6.07081 6.86369 5.94898C6.9596 5.85825 7.05551 5.76753 7.16697 5.66902L7.26807 5.57311C7.6543 5.20503 8.09237 4.7877 8.6419 4.5207L8.68597 4.49997L8.72485 4.47405C8.83631 4.40147 8.94778 4.32889 9.05924 4.26149C9.17329 4.1915 9.28735 4.1267 9.4014 4.0593C9.51286 3.99709 9.57767 3.96339 9.61396 3.94525C10.1816 3.86748 10.5523 3.55384 10.8038 3.33869C10.8349 3.31277 10.8711 3.28166 10.9048 3.25315L10.9619 3.26611L11.3455 3.15205C11.4155 3.13132 11.4829 3.11317 11.571 3.08466C12.162 2.88506 12.7712 2.72694 13.3855 2.61807C13.5488 2.58956 13.6655 2.57401 13.7381 2.57401C13.7718 2.5766 13.8055 2.5766 13.8417 2.5766C14.3135 2.5766 14.7516 2.46773 15.1378 2.37182C15.4411 2.29665 15.7288 2.22407 15.9621 2.22407C16.0373 2.22407 16.0995 2.23184 16.1591 2.2474C16.2369 2.26554 16.3043 2.29665 16.3743 2.3459L16.535 2.45995L16.732 2.48069C16.9394 2.50402 17.1415 2.52216 17.3411 2.54031C17.8518 2.58956 18.3339 2.63362 18.7513 2.7399C18.8031 2.75546 18.8394 2.76582 18.8627 2.7736C19.3682 3.24278 20.0162 3.38535 20.5398 3.50199C20.9261 3.58753 21.289 3.66789 21.4652 3.84156L21.5119 3.88822L21.5663 3.9271C21.7867 4.08004 21.9707 4.19409 22.134 4.29519L22.1573 4.31074C22.9453 4.80066 23.6867 5.3787 24.3581 6.02933C24.4747 6.14339 24.5369 6.22115 24.5525 6.24448L24.5732 6.27558L24.5965 6.30669C24.8195 6.58923 25.0657 6.83549 25.3042 7.07397C25.6438 7.41094 25.9626 7.72978 26.0948 8.05379L26.1259 8.12897L26.17 8.19636C26.2763 8.35448 26.3799 8.5126 26.4784 8.67591C26.7558 9.12694 27.0098 9.6013 27.2302 10.0783C27.2587 10.1457 27.282 10.1949 27.295 10.2286C27.3079 10.8896 27.6164 11.3795 27.8652 11.7735C28.0985 12.1442 28.2178 12.349 28.1815 12.5978L28.1607 12.7274C28.1607 12.7274 28.2229 13.0748 28.2463 13.1862C28.3552 13.7332 28.4329 14.2931 28.4796 14.853C28.4951 15.0681 28.4951 15.1666 28.4899 15.2107C28.4122 15.6591 28.5133 16.092 28.604 16.4757C28.731 17.02 28.7517 17.2248 28.6273 17.3648L28.4925 17.5125Z" fill="#D6E4EA"/>
<path id="Vector_10" d="M6.05992 13.7979C6.22412 13.4197 6.21566 13.0517 6.04101 12.9759C5.86635 12.9 5.59166 13.1451 5.42745 13.5233C5.26324 13.9015 5.27171 14.2696 5.44636 14.3454C5.62101 14.4212 5.89571 14.1761 6.05992 13.7979Z" fill="#D6E4EA"/>
<path id="Vector_11" d="M8.89392 7.13134C9.10118 7.04439 9.1161 6.60897 8.92724 6.1588C8.73837 5.70864 8.41725 5.4142 8.20999 5.50116C8.00273 5.58811 7.98782 6.02353 8.17668 6.47369C8.36554 6.92386 8.68666 7.2183 8.89392 7.13134Z" fill="#D6E4EA"/>
<path id="Vector_12" d="M6.87813 8.79501C6.92466 8.30906 6.78101 7.89775 6.55727 7.87632C6.33354 7.8549 6.11444 8.23147 6.0679 8.71743C6.02137 9.20338 6.16502 9.61469 6.38876 9.63611C6.61249 9.65754 6.83159 9.28097 6.87813 8.79501Z" fill="#D6E4EA"/>
<path id="Vector_13" d="M4.26328 16.1392C4.42749 15.761 4.41902 15.393 4.24437 15.3171C4.06972 15.2413 3.79503 15.4864 3.63082 15.8646C3.46661 16.2428 3.47508 16.6109 3.64973 16.6867C3.82438 16.7625 4.09908 16.5174 4.26328 16.1392Z" fill="#D6E4EA"/>
<path id="Vector_14" d="M4.02725 14.3372C4.25098 14.3158 4.39463 13.9044 4.3481 13.4185C4.30156 12.9325 4.08246 12.556 3.85873 12.5774C3.63499 12.5988 3.49134 13.0101 3.53787 13.4961C3.58441 13.982 3.80351 14.3586 4.02725 14.3372Z" fill="#D6E4EA"/>
<path id="Vector_15" d="M27.1558 13.6482C27.3304 13.5724 27.3389 13.2043 27.1747 12.8261C27.0105 12.4479 26.7358 12.2028 26.5611 12.2786C26.3865 12.3545 26.378 12.7225 26.5422 13.1007C26.7064 13.4789 26.9811 13.724 27.1558 13.6482Z" fill="#D6E4EA"/>
<path id="Vector_16" d="M5.0454 12.2577C5.22005 12.1819 5.22852 11.8138 5.06431 11.4356C4.9001 11.0575 4.62541 10.8123 4.45075 10.8882C4.2761 10.964 4.26764 11.3321 4.43184 11.7103C4.59605 12.0884 4.87075 12.3336 5.0454 12.2577Z" fill="#D6E4EA"/>
<path id="Vector_17" d="M23.7927 7.30131C23.9816 6.85114 23.9667 6.41573 23.7594 6.32877C23.5521 6.24182 23.231 6.53626 23.0422 6.98642C22.8533 7.43658 22.8682 7.872 23.0755 7.95896C23.2827 8.04591 23.6039 7.75147 23.7927 7.30131Z" fill="#D6E4EA"/>
<path id="Vector_18" d="M25.5832 10.4676C25.8069 10.4462 25.9505 10.0348 25.904 9.54889C25.8575 9.06294 25.6384 8.68636 25.4146 8.70779C25.1909 8.72921 25.0472 9.14052 25.0938 9.62648C25.1403 10.1124 25.3594 10.489 25.5832 10.4676Z" fill="#D6E4EA"/>
<path id="Vector_19" d="M26.7375 16.8398C26.9612 16.8184 27.1048 16.4071 27.0583 15.9211C27.0118 15.4352 26.7927 15.0586 26.5689 15.08C26.3452 15.1014 26.2015 15.5127 26.2481 15.9987C26.2946 16.4847 26.5137 16.8612 26.7375 16.8398Z" fill="#D6E4EA"/>
<path id="Vector_20" d="M27.1734 19.0926C27.3376 18.7144 27.3292 18.3464 27.1545 18.2705C26.9799 18.1947 26.7052 18.4398 26.541 18.818C26.3768 19.1962 26.3852 19.5643 26.5599 19.6401C26.7345 19.7159 27.0092 19.4708 27.1734 19.0926Z" fill="#D6E4EA"/>
<path id="Vector_21" d="M23.7616 25.5934C23.9689 25.5065 23.9838 25.0711 23.7949 24.6209C23.6061 24.1707 23.2849 23.8763 23.0777 23.9633C22.8704 24.0502 22.8555 24.4856 23.0444 24.9358C23.2332 25.386 23.5543 25.6804 23.7616 25.5934Z" fill="#D6E4EA"/>
<path id="Vector_22" d="M25.904 22.3694C25.9505 21.8834 25.8069 21.4721 25.5832 21.4507C25.3594 21.4292 25.1403 21.8058 25.0938 22.2918C25.0472 22.7777 25.1909 23.189 25.4146 23.2105C25.6384 23.2319 25.8575 22.8553 25.904 22.3694Z" fill="#D6E4EA"/>
<path id="Vector_23" d="M4.02392 19.6409C4.19857 19.5651 4.20703 19.197 4.04283 18.8188C3.87862 18.4406 3.60392 18.1955 3.42927 18.2714C3.25462 18.3472 3.24615 18.7152 3.41036 19.0934C3.57457 19.4716 3.84926 19.7167 4.02392 19.6409Z" fill="#D6E4EA"/>
<path id="Vector_24" d="M5.38646 17.8275C5.56111 17.7517 5.56958 17.3836 5.40537 17.0054C5.24117 16.6272 4.96647 16.3821 4.79182 16.458C4.61717 16.5338 4.6087 16.9019 4.77291 17.2801C4.93711 17.6582 5.21181 17.9034 5.38646 17.8275Z" fill="#D6E4EA"/>
<path id="Vector_25" d="M7.81005 25.1395C7.99891 24.6893 7.98399 24.2539 7.77673 24.167C7.56947 24.08 7.24835 24.3745 7.05949 24.8246C6.87063 25.2748 6.88555 25.7102 7.09281 25.7972C7.30007 25.8841 7.62119 25.5897 7.81005 25.1395Z" fill="#D6E4EA"/>
<path id="Vector_26" d="M5.17422 23.2134C5.39796 23.192 5.54161 22.7807 5.49507 22.2947C5.44854 21.8088 5.22944 21.4322 5.0057 21.4536C4.78196 21.475 4.63831 21.8863 4.68485 22.3723C4.73138 22.8583 4.95048 23.2348 5.17422 23.2134Z" fill="#D6E4EA"/>
<path id="Vector_27" d="M18.2419 5.57635C18.3037 5.39625 18.0376 5.14181 17.6476 5.00806C17.2576 4.8743 16.8914 4.91188 16.8296 5.09198C16.7678 5.27209 17.0339 5.52652 17.4239 5.66028C17.8139 5.79403 18.1802 5.75646 18.2419 5.57635Z" fill="#D6E4EA"/>
<path id="Vector_28" d="M16.6836 4.02C17.0847 3.92424 17.3739 3.69648 17.3297 3.51129C17.2855 3.32609 16.9245 3.25359 16.5235 3.34935C16.1225 3.44511 15.8332 3.67287 15.8774 3.85806C15.9217 4.04326 16.2826 4.11576 16.6836 4.02Z" fill="#D6E4EA"/>
<path id="Vector_29" d="M11.5167 5.25106C11.7428 4.8184 11.7646 4.38327 11.5654 4.27917C11.3662 4.17508 11.0215 4.44143 10.7954 4.8741C10.5693 5.30676 10.5475 5.74189 10.7467 5.84598C10.9459 5.95008 11.2906 5.68372 11.5167 5.25106Z" fill="#D6E4EA"/>
<path id="Vector_30" d="M14.7927 4.48995C14.9277 4.31029 14.7209 3.92686 14.3306 3.63354C13.9404 3.34023 13.5146 3.2481 13.3795 3.42777C13.2445 3.60743 13.4514 3.99086 13.8416 4.28418C14.2318 4.57749 14.6576 4.66962 14.7927 4.48995Z" fill="#D6E4EA"/>
<path id="Vector_31" d="M20.7314 5.62873C21.1479 5.37416 21.3906 5.01233 21.2734 4.82054C21.1562 4.62876 20.7235 4.67965 20.307 4.93421C19.8904 5.18878 19.6477 5.55061 19.7649 5.7424C19.8822 5.93418 20.3148 5.88329 20.7314 5.62873Z" fill="#D6E4EA"/>
<path id="Vector_32" d="M19.235 4.41938C19.5025 4.2559 19.6582 4.02335 19.5828 3.89997C19.5074 3.77659 19.2294 3.80911 18.9619 3.9726C18.6944 4.13608 18.5387 4.36863 18.6141 4.49201C18.6895 4.61539 18.9674 4.58287 19.235 4.41938Z" fill="#D6E4EA"/>
<path id="Vector_33" d="M18.1808 26.5509C18.5497 26.3666 18.7797 26.0791 18.6946 25.9088C18.6094 25.7385 18.2415 25.7498 17.8726 25.9341C17.5038 26.1184 17.2738 26.4059 17.3589 26.5762C17.444 26.7465 17.812 26.7352 18.1808 26.5509Z" fill="#D6E4EA"/>
<path id="Vector_34" d="M18.0633 28.0768C18.0825 27.8874 17.7657 27.7 17.3555 27.6583C16.9453 27.6165 16.5971 27.7363 16.5779 27.9257C16.5586 28.1151 16.8755 28.3025 17.2857 28.3442C17.6959 28.386 18.044 28.2663 18.0633 28.0768Z" fill="#D6E4EA"/>
<path id="Vector_35" d="M15.0752 28.3558C15.4231 28.0133 15.5773 27.6058 15.4196 27.4457C15.2619 27.2855 14.8521 27.4333 14.5042 27.7757C14.1563 28.1182 14.0021 28.5257 14.1598 28.6859C14.3174 28.846 14.7273 28.6983 15.0752 28.3558Z" fill="#D6E4EA"/>
<path id="Vector_36" d="M10.2016 25.5561C10.2867 25.3858 10.0567 25.0983 9.68792 24.914C9.3191 24.7297 8.95112 24.7184 8.86601 24.8887C8.78091 25.0591 9.0109 25.3465 9.37972 25.5308C9.74855 25.7151 10.1165 25.7264 10.2016 25.5561Z" fill="#D6E4EA"/>
<path id="Vector_37" d="M10.2722 27.3181C10.6824 27.2764 10.9993 27.089 10.98 26.8995C10.9607 26.7101 10.6126 26.5904 10.2024 26.6321C9.79224 26.6739 9.47534 26.8613 9.49462 27.0507C9.51389 27.2401 9.86204 27.3598 10.2722 27.3181Z" fill="#D6E4EA"/>
<path id="Vector_38" d="M13.4001 27.6619C13.5577 27.5017 13.4035 27.0942 13.0557 26.7518C12.7078 26.4093 12.2979 26.2615 12.1402 26.4217C11.9826 26.5819 12.1368 26.9893 12.4847 27.3318C12.8325 27.6743 13.2424 27.8221 13.4001 27.6619Z" fill="#D6E4EA"/>
<path id="Vector_39" d="M21.7985 26.2566C21.8893 26.051 21.6007 25.7245 21.1541 25.5274C20.7075 25.3304 20.2719 25.3373 20.1811 25.5429C20.0904 25.7486 20.3789 26.075 20.8255 26.2721C21.2722 26.4692 21.7078 26.4622 21.7985 26.2566Z" fill="#D6E4EA"/>
<path id="Vector_40" d="M20.2421 27.3939C20.3004 27.2616 20.1152 27.0517 19.8284 26.9252C19.5416 26.7986 19.2617 26.8032 19.2033 26.9355C19.145 27.0678 19.3302 27.2777 19.617 27.4042C19.9039 27.5308 20.1837 27.5262 20.2421 27.3939Z" fill="#D6E4EA"/>
<g id="Group_2" opacity="0.4">
<path id="Vector_41" d="M10.9876 23.0882C10.6895 23.0882 10.4174 22.9845 10.2955 22.7201C10.1556 22.4143 10.3266 22.0566 10.5677 21.8621C10.7336 21.7273 10.9254 21.6496 11.1121 21.5718C11.1769 21.5459 11.2417 21.5174 11.3065 21.4889C12.3433 21.0119 12.9318 19.9154 13.2454 19.0808C13.4165 18.6194 13.5539 18.1372 13.6835 17.6681C13.8416 17.1004 14.0075 16.5146 14.2382 15.9572C15.4021 13.1655 18.4375 11.2395 21.4599 11.3666C22.025 11.3899 22.4345 11.4806 22.7897 11.6543C23.1992 11.8565 24.1376 12.8259 24.2257 13.1396C24.3216 13.4792 24.1246 13.8084 23.8887 13.9872C23.6477 14.1661 23.3548 14.2361 23.0748 14.2827C22.3335 14.4071 21.5973 14.3553 20.887 14.3086C19.7932 14.2335 18.7589 14.1635 17.805 14.7156C16.9885 15.1848 16.2938 16.0169 15.6846 17.2507C15.5006 17.6214 15.3087 18.0491 15.1066 18.5027C14.7488 19.2985 14.3808 20.1202 14.0075 20.7501C13.5176 21.577 12.6725 22.6424 11.4179 23.0234C11.278 23.0675 11.1276 23.0908 10.9851 23.0908L10.9876 23.0882ZM21.1696 11.618C18.3467 11.618 15.568 13.448 14.4819 16.0557C14.2563 16.5975 14.093 17.1781 13.9375 17.738C13.8053 18.2124 13.6679 18.7023 13.4917 19.1715C13.1625 20.0528 12.5352 21.2115 11.4179 21.7248C11.3505 21.7559 11.2832 21.7844 11.2158 21.8129C11.0395 21.8855 10.871 21.9555 10.7336 22.0669C10.5729 22.1965 10.4511 22.4324 10.534 22.6165C10.6455 22.8627 11.0343 22.8731 11.348 22.7772C12.5222 22.4195 13.3232 21.4059 13.7898 20.6205C14.1552 20.001 14.5207 19.1871 14.8759 18.399C15.0806 17.9454 15.2725 17.5151 15.4591 17.1393C16.0916 15.8561 16.82 14.9904 17.6806 14.4927C18.7045 13.9017 19.7776 13.9743 20.9104 14.052C21.6051 14.0987 22.3257 14.1479 23.0385 14.0287C23.2874 13.9872 23.544 13.9276 23.741 13.7824C23.9017 13.6632 24.0443 13.4325 23.9847 13.2148C23.9276 13.0126 23.0696 12.082 22.6834 11.8928C22.3646 11.7346 21.9861 11.6543 21.4573 11.6335C21.364 11.6284 21.2681 11.6284 21.1748 11.6284L21.1696 11.618Z" fill="white"/>
</g>
<g id="Group_3" opacity="0.4">
<path id="Vector_42" d="M10.7648 21.1441C10.6196 21.1441 10.516 21.0948 10.4537 21.0015C10.3008 20.7605 10.516 20.3094 10.8711 19.5681C11.1847 18.9123 11.5735 18.0983 11.812 17.1937C12.1749 15.825 13.1677 12.4967 14.5312 11.1332C15.9361 9.73089 17.24 8.82623 19.3811 8.66293C20.0706 8.61108 20.9234 8.64738 21.4237 9.40947C21.657 9.76459 21.7088 10.0886 21.574 10.3452C21.377 10.7237 20.8145 10.9207 19.8554 10.9492C17.4447 11.0166 15.2933 12.5952 13.9531 15.2807C13.8209 15.5451 13.6499 16.0687 13.4528 16.6726C12.8385 18.5597 11.9961 21.1467 10.7648 21.1467V21.1441ZM19.7751 8.904C19.6507 8.904 19.5262 8.90918 19.4018 8.91955C17.3385 9.07767 16.0787 9.95382 14.7152 11.3147C13.3958 12.6315 12.4212 15.908 12.0635 17.2559C11.8172 18.1839 11.4232 19.0108 11.1044 19.6769C10.8659 20.1746 10.5963 20.7397 10.6741 20.8616C10.6818 20.8745 10.7181 20.8849 10.7648 20.8849C11.8068 20.8849 12.6493 18.3005 13.2066 16.5897C13.4062 15.9754 13.5799 15.4466 13.7198 15.164C15.104 12.3904 17.3385 10.76 19.8477 10.69C20.9001 10.6615 21.2422 10.4204 21.3459 10.226C21.4574 10.0108 21.333 9.74126 21.2085 9.55203C20.8638 9.02583 20.3194 8.904 19.7751 8.904Z" fill="white"/>
</g>
<g id="Group_4" opacity="0.4">
<path id="Vector_43" d="M11.3064 14.0987C10.9435 14.0987 10.788 13.6762 10.762 13.3133C10.7413 12.9944 11.1198 11.5739 11.2701 11.1566C11.4593 10.6226 11.7678 10.1457 12.1877 9.73869L12.3277 9.60131C12.5921 9.33432 12.8954 9.03103 13.2816 8.86773C13.6575 8.70702 14.1785 8.69146 14.4921 9.01807C14.8654 9.40689 14.7254 10.0523 14.3936 10.493C14.2277 10.7133 13.8908 10.9233 13.5642 11.1255C13.2738 11.3043 12.9757 11.491 12.8384 11.6595C12.5532 12.012 12.4107 12.4812 12.2862 12.8959C12.0996 13.5154 11.9207 14.1013 11.3064 14.1013V14.0987ZM12.3692 9.92273C11.9804 10.3038 11.6926 10.747 11.5138 11.2421C11.3479 11.7087 11.0057 13.0514 11.0213 13.2951C11.0342 13.5051 11.1249 13.8395 11.3064 13.8395C11.7108 13.8395 11.843 13.4714 12.04 12.8182C12.1722 12.3801 12.3225 11.885 12.6388 11.4936C12.8021 11.2914 13.1079 11.1022 13.4294 10.9026C13.7352 10.7133 14.0515 10.5163 14.1889 10.3349C14.4481 9.99272 14.5777 9.47688 14.3081 9.19693C14.0826 8.96105 13.673 8.98438 13.3879 9.10621C13.0483 9.25137 12.7658 9.5365 12.5143 9.78535L12.3718 9.92532L12.3692 9.92273Z" fill="white"/>
</g>
<g id="Group_5" opacity="0.4">
<path id="Vector_44" d="M10.6532 17.8469C10.394 17.8469 10.1296 17.7251 9.9663 17.5099C9.74856 17.2196 9.72005 16.7919 9.89631 16.442C9.94038 16.3564 9.99481 16.2735 10.0467 16.1957C10.1529 16.0376 10.2514 15.8898 10.2411 15.7343C10.2359 15.6643 10.2074 15.5866 10.1789 15.5062C10.1322 15.3766 10.0778 15.2289 10.1141 15.0681C10.1244 15.0189 10.1581 14.9515 10.2488 14.8996C10.521 14.7441 11.1742 14.8478 11.2701 14.8789C11.5942 14.9774 11.7652 15.3429 11.7341 15.8587C11.7108 16.2398 11.6408 16.6208 11.5294 16.9863C11.4516 17.2378 11.3142 17.5929 11.0057 17.7588C10.8969 17.8184 10.775 17.8443 10.6506 17.8443L10.6532 17.8469ZM10.3681 15.1329C10.3499 15.2159 10.3836 15.3092 10.4251 15.4155C10.4588 15.5088 10.4951 15.6073 10.5029 15.7162C10.5184 15.9598 10.3836 16.162 10.2644 16.3383C10.2151 16.4109 10.1659 16.4834 10.1296 16.5586C9.99741 16.8204 10.0156 17.1393 10.1763 17.3518C10.3396 17.5696 10.6662 17.6499 10.8865 17.5307C11.1094 17.4088 11.2157 17.1341 11.2857 16.9086C11.392 16.5612 11.4568 16.2009 11.4801 15.8406C11.4983 15.5399 11.436 15.1952 11.2002 15.1252C11.0239 15.0707 10.451 15.0448 10.3707 15.1329H10.3681Z" fill="white"/>
</g>
<g id="Group_6" opacity="0.3">
<path id="Vector_45" d="M25.2547 15.3403C25.2495 15.3947 25.2444 15.4518 25.2392 15.5114C23.3314 16.162 21.1228 15.9572 19.1813 16.3175C18.2378 16.4731 17.9864 17.0226 17.8334 17.9143C17.061 21.2478 15.9334 23.1608 13.3775 24.5243C13.2557 24.5113 13.1391 24.4957 13.0276 24.4828C15.5368 22.9275 16.5477 21.2115 17.3305 17.7977C17.429 17.3959 17.499 16.9189 17.8205 16.5016C18.1289 16.105 18.6214 15.9183 19.088 15.8406C19.9693 15.6928 20.8325 15.6902 21.6879 15.6643C22.87 15.6073 24.1012 15.6228 25.2547 15.3403Z" fill="black"/>
</g>
<g id="Group_7" opacity="0.3">
<path id="Vector_46" d="M25.1434 16.4342C25.133 16.5223 25.1226 16.613 25.1148 16.7038C23.4948 17.0096 21.7477 16.9293 20.1742 17.2222C19.2307 17.3777 18.9792 17.9247 18.8263 18.8189C18.1912 21.5588 17.3151 23.3422 15.5991 24.6461C15.5654 24.6487 15.5343 24.6487 15.5006 24.6487H15.4202C15.3062 24.6487 15.1947 24.6461 15.0833 24.6461C16.8381 23.2593 17.6598 21.5874 18.3234 18.7023C18.4219 18.3005 18.4919 17.821 18.8133 17.4062C19.1218 17.0096 19.6143 16.823 20.0809 16.7426C20.9622 16.5975 21.8254 16.5949 22.6808 16.569C23.4922 16.5301 24.3268 16.5223 25.1434 16.4342Z" fill="black"/>
</g>
<g id="Group_8" opacity="0.3">
<path id="Vector_47" d="M25.0189 17.4995C25.0059 17.6136 24.9904 17.7302 24.9748 17.8469C23.6943 17.9765 22.3775 17.9817 21.167 18.2072C20.226 18.3601 19.972 18.9097 19.8216 19.8014C19.3628 21.7688 18.7822 23.2463 17.8542 24.4024C17.6494 24.4491 17.4395 24.488 17.2295 24.5217C18.2327 23.3319 18.8185 21.8492 19.3162 19.6873C19.4147 19.2855 19.4847 18.806 19.8061 18.3912C20.1145 17.9946 20.6096 17.808 21.0736 17.7277C21.955 17.5825 22.8182 17.5799 23.6736 17.554C24.1168 17.5332 24.5678 17.5203 25.0189 17.4995Z" fill="black"/>
</g>
<g id="Group_9" opacity="0.3">
<path id="Vector_48" d="M24.8763 18.5468C24.8581 18.679 24.8374 18.8112 24.8166 18.9382C23.912 19.0004 23.0099 19.0497 22.1597 19.2078C21.2188 19.3607 20.9647 19.9102 20.8144 20.8019C20.5655 21.8699 20.283 22.7927 19.9227 23.5989C19.7049 23.7026 19.482 23.8062 19.2539 23.9125C19.6842 23.026 20.0134 21.9762 20.3089 20.6879C20.4074 20.2861 20.4774 19.8066 20.7988 19.3918C21.1073 18.9952 21.6024 18.8086 22.0664 18.7282C22.9477 18.5831 23.8109 18.5805 24.6663 18.5546C24.7363 18.552 24.8063 18.5468 24.8763 18.5468Z" fill="black"/>
</g>
<g id="Group_10" opacity="0.3">
<path id="Vector_49" d="M24.6898 19.6458C24.6587 19.8014 24.6146 19.9491 24.5576 20.0917C24.078 20.1332 23.6089 20.185 23.1526 20.2705C22.2117 20.4261 21.9577 20.9756 21.8073 21.8673C21.7347 22.1836 21.657 22.4868 21.574 22.7797C21.3744 22.8886 21.1671 22.9949 20.9519 23.1012C21.0763 22.6838 21.1904 22.2354 21.3018 21.7533C21.4003 21.3489 21.4703 20.8719 21.7918 20.4546C22.1002 20.0606 22.5953 19.874 23.0593 19.7936C23.6089 19.7029 24.1532 19.6666 24.6898 19.6458Z" fill="black"/>
</g>
<g id="Group_11" opacity="0.4">
<path id="Vector_50" d="M7.4208 21.7792C7.38191 21.7792 7.34044 21.774 7.30156 21.7636C7.12529 21.717 6.98013 21.5666 6.87645 21.3178C6.63538 20.7423 6.57317 20.2239 6.6924 19.7806C6.74166 19.594 6.79609 19.4151 6.84793 19.2337C7.10196 18.3705 7.34303 17.554 7.17195 16.4445C6.68204 13.2277 8.71946 10.4463 8.7402 10.4178L9.30788 9.73349L8.96312 10.5474C8.96312 10.5474 8.44988 11.7709 8.08957 13.8317C7.79666 15.5088 8.00144 17.7614 8.23473 18.7567C8.25547 18.8501 8.28139 18.9486 8.30731 19.0471C8.51727 19.8662 8.77649 20.8875 7.82517 21.6159C7.6852 21.7247 7.54781 21.7792 7.4182 21.7792H7.4208ZM8.78426 10.563C8.37211 11.211 7.06049 13.4558 7.43117 16.4057C7.57892 17.5747 7.36118 18.4146 7.09937 19.3063C7.04753 19.4851 6.99309 19.664 6.94384 19.8454C6.84016 20.2317 6.89718 20.6931 7.11752 21.2141C7.16677 21.3307 7.24972 21.4785 7.36895 21.5096C7.44931 21.5303 7.553 21.4966 7.66964 21.4085C8.48617 20.7838 8.25806 19.8947 8.05846 19.1093C8.03254 19.0082 8.00662 18.9097 7.98588 18.8138C7.79407 17.9921 7.44413 15.6695 7.83813 13.785C8.14919 12.2997 8.59763 11.1358 8.78426 10.563Z" fill="white"/>
</g>
</g>
</g>
</g>
</g>
</g>
</g>
</g>
</g>
<defs>
<linearGradient id="paint0_linear_0_1" x1="277.534" y1="-429.657" x2="277.534" y2="932" gradientUnits="userSpaceOnUse">
<stop stop-color="white"/>
<stop offset="1" stop-color="#CFD8DC"/>
</linearGradient>
<clipPath id="clip0_0_1">
<rect width="1440" height="1024" fill="white" transform="translate(-380 -92)"/>
</clipPath>
<clipPath id="clip1_0_1">
<rect width="35.5512" height="32" fill="white" transform="translate(0.225098)"/>
</clipPath>
</defs>
</svg>
