<svg width="44" height="32" viewBox="0 0 44 32" fill="none" xmlns="http://www.w3.org/2000/svg">
<rect width="44" height="32" fill="#868686"/>
<g id="FoodieGo - Main View" clip-path="url(#clip0_0_1)">
<rect id="Rectangle 24" x="-1112" y="-92" width="1440" height="1024" fill="url(#paint0_linear_0_1)"/>
<g id="Mask group">
<mask id="mask0_0_1" style="mask-type:alpha" maskUnits="userSpaceOnUse" x="-936" y="-4" width="1088" height="62">
<rect id="Rectangle 23" x="-936" y="-4" width="1088" height="62" fill="#D9D9D9"/>
</mask>
<g mask="url(#mask0_0_1)">
<g id="Frame 223">
<g id="Group 237">
<g id="Frame 221">
<g id="Food - icons">
<g id="Layer_1" clip-path="url(#clip1_0_1)">
<path id="Vector" d="M42.4436 11.0659C42.3736 12.8933 39.2682 14.516 34.478 15.5554C31.0278 16.3046 26.6989 16.7504 21.9994 16.7504C21.0662 16.7504 20.1486 16.7323 19.2491 16.6986C9.33417 16.3253 1.6692 13.9509 1.55774 11.0659H42.4462H42.4436Z" fill="#1A292D"/>
<path id="Vector_2" d="M21.9994 18.1268C33.9919 18.1268 43.7138 14.9655 43.7138 11.0658C43.7138 7.16617 33.9919 4.00485 21.9994 4.00485C10.0069 4.00485 0.285034 7.16617 0.285034 11.0658C0.285034 14.9655 10.0069 18.1268 21.9994 18.1268Z" fill="#1A292D"/>
<path id="Vector_3" d="M38.615 7.652C37.7959 7.33058 36.8627 7.03507 35.831 6.76808C35.7118 6.28076 35.5614 5.86343 35.4033 5.51089C36.4168 5.77011 37.3552 6.05784 38.2132 6.37149C38.2132 6.37926 38.221 6.38704 38.221 6.39482L38.2339 6.42851C38.3713 6.77845 38.5035 7.18542 38.615 7.652Z" fill="#304044"/>
<path id="Vector_4" d="M21.9994 6.62551C32.4639 6.62551 41.0854 8.83661 42.2933 11.688C42.3892 11.4625 42.4436 11.2343 42.4436 11.001C42.4436 7.82568 33.2908 5.25168 21.9994 5.25168C10.708 5.25168 1.55518 7.82568 1.55518 11.0036C1.55518 11.2369 1.60961 11.465 1.70552 11.6906C2.91346 8.8392 11.5349 6.62811 21.9994 6.62811V6.62551Z" fill="#1A292D"/>
<path id="Vector_5" d="M43.6827 11.4625C43.0735 22.9068 33.5992 32 21.9994 32C10.3996 32 0.927879 22.9068 0.318726 11.4625C0.819009 14.4045 6.8587 16.8645 15.1017 17.7614C17.0717 17.9765 19.1688 18.1009 21.3462 18.1217C21.4965 18.1217 21.6443 18.1217 21.7946 18.1217H21.9994C25.1748 18.1217 28.1894 17.8987 30.9086 17.4996C31.8392 17.3648 32.7309 17.2066 33.5863 17.033C35.2401 16.6934 36.7435 16.2813 38.0551 15.8121C41.3135 14.6508 43.395 13.1318 43.6801 11.4573L43.6827 11.4625Z" fill="#1A292D"/>
<path id="Vector_6" d="M42.6303 8.85993C42.6303 8.85993 42.6199 8.84956 42.6147 8.84438C42.5396 8.7718 42.4592 8.69922 42.3763 8.62664C42.3374 8.59294 42.3011 8.55665 42.2596 8.52295C42.1844 8.45815 42.0989 8.39594 42.0185 8.33113C41.9719 8.29484 41.9304 8.25855 41.8811 8.22226C41.8163 8.1756 41.7464 8.12376 41.6738 8.07451C41.6168 8.03563 41.5597 7.99675 41.5001 7.95786C41.4768 7.94231 41.4534 7.92676 41.4301 7.91121C41.3446 7.85677 41.259 7.80234 41.1683 7.74531C41.1139 7.7142 41.0594 7.68051 41.0024 7.64681C40.8495 7.55867 40.6914 7.47054 40.5281 7.38241C40.4632 7.34871 40.3933 7.31501 40.3259 7.27872C40.2429 7.23725 40.1626 7.19318 40.077 7.15171C40.0667 7.14652 40.0563 7.14134 40.0459 7.13616C39.9733 7.10246 39.9008 7.06617 39.8256 7.03247C39.7297 6.9884 39.6312 6.94174 39.5327 6.89768C39.4575 6.86398 39.3849 6.83287 39.3072 6.79918C39.1957 6.75252 39.0842 6.70586 38.9702 6.6592C38.9028 6.63069 38.838 6.60477 38.768 6.57884C38.5839 6.50626 38.3973 6.43368 38.2055 6.3637C38.2055 6.37147 38.2133 6.37925 38.2133 6.38703L38.2262 6.42072C38.3636 6.77066 38.4958 7.17763 38.6073 7.64422C38.8976 7.75827 39.1724 7.87492 39.4316 7.99156C39.4653 8.00712 39.4964 8.02267 39.5275 8.03822C39.6078 8.07451 39.6856 8.11339 39.7634 8.15228C39.8178 8.1782 39.8722 8.20671 39.9267 8.23522C39.963 8.25337 39.9993 8.27411 40.0355 8.29225C40.1107 8.33113 40.1885 8.37261 40.2611 8.41408C40.3622 8.47111 40.4607 8.52814 40.5566 8.58516C40.5566 8.58516 40.5617 8.58776 40.5643 8.59035C40.6525 8.64219 40.7328 8.69662 40.8158 8.75106C40.8573 8.77957 40.8987 8.8055 40.9402 8.83401C41.0128 8.88326 41.0854 8.9351 41.1528 8.98435C41.2383 9.04916 41.3187 9.11396 41.3964 9.17876C41.399 9.18136 41.4042 9.18395 41.4068 9.18654C41.469 9.23838 41.5234 9.29023 41.5805 9.34466C41.6012 9.36281 41.6219 9.38095 41.6401 9.3991C41.6738 9.4302 41.7023 9.4639 41.7334 9.49501C41.7671 9.5313 41.8034 9.56759 41.8345 9.60128C41.863 9.63239 41.8889 9.66609 41.9148 9.69719C41.946 9.73348 41.9745 9.77236 42.003 9.80865C42.0263 9.83976 42.0496 9.87346 42.0704 9.90456C42.0963 9.94345 42.1222 9.98233 42.1455 10.0186C42.1637 10.0497 42.1844 10.0808 42.2 10.1119C42.2233 10.1534 42.2415 10.1923 42.2596 10.2338C42.2726 10.2649 42.2881 10.2934 42.3011 10.3245C42.3192 10.3712 42.3348 10.4152 42.3503 10.4619C42.3581 10.4878 42.3685 10.5137 42.3763 10.5396C42.3944 10.607 42.4099 10.677 42.4203 10.7444C42.4255 10.7833 42.4281 10.8248 42.4307 10.8637C42.4333 10.9077 42.4411 10.9518 42.4411 10.9959C42.4411 11.0166 42.4411 11.0399 42.4411 11.0581C42.3944 12.3153 40.9117 13.4739 38.4388 14.4123C37.3112 14.84 35.9762 15.2236 34.4754 15.5477C33.537 15.7524 32.5287 15.9339 31.4711 16.0894C28.6379 16.5068 25.4159 16.7426 21.9968 16.7426C21.6806 16.7426 21.3643 16.7426 21.0507 16.7349C20.4415 16.7271 19.8402 16.7115 19.2466 16.6908C17.5435 16.6286 15.9053 16.5016 14.3656 16.3279C6.92092 15.4854 1.6485 13.448 1.55518 11.0581C1.55518 11.0373 1.55518 11.014 1.55518 10.9959C1.55518 8.4737 7.3227 6.33259 15.348 5.55495C17.4321 5.35276 19.6691 5.24389 21.9994 5.24389C27.334 5.24389 32.1891 5.81675 35.8285 6.7577C35.7093 6.27038 35.5589 5.85304 35.4008 5.50051C31.7096 4.55957 27.0567 3.99707 21.9994 3.99707C19.6535 3.99707 17.3906 4.1189 15.2728 4.34442C6.57357 5.2724 0.285034 7.93194 0.285034 11.0658C0.285034 11.2006 0.295403 11.3302 0.318732 11.4624C0.819016 14.4045 6.85871 16.8645 15.1017 17.7613C17.0718 17.9765 19.1688 18.1009 21.3462 18.1217C21.4965 18.1217 21.6443 18.1217 21.7946 18.1217H21.9994C25.1748 18.1217 28.1895 17.8987 30.9086 17.4995C31.8392 17.3648 32.7309 17.2066 33.5863 17.033C35.2401 16.6934 36.7435 16.2812 38.0551 15.8121C41.3135 14.6508 43.395 13.1318 43.6801 11.4573C43.7034 11.3251 43.7138 11.1955 43.7138 11.0607C43.7138 10.2908 43.3302 9.54944 42.6277 8.85475L42.6303 8.85993Z" fill="#304044"/>
<path id="Vector_7" d="M23.8165 5.8349H11.5038V15.1174H23.8165V5.8349Z" fill="white"/>
<path id="Vector_8" d="M11.5038 5.8349L20.3378 1.82486H31.3363L23.8165 5.8349H11.5038Z" fill="#F6F7F0"/>
<path id="Vector_9" d="M31.3363 1.82486V9.24098L23.8165 15.1174V5.8349L31.3363 1.82486Z" fill="#E4E5DF"/>
<path id="Vector_10" d="M34.6335 12.3878C34.2965 12.7585 34.325 13.334 34.7009 13.6735C34.9756 13.9224 35.1804 14.2568 35.043 14.6586C34.986 14.8322 34.649 15.1925 34.0995 15.6358C33.27 15.8069 32.3913 15.9624 31.4762 16.0972C30.3072 16.2683 29.0733 16.4108 27.785 16.5145C25.9524 16.6675 24.0109 16.7504 22.002 16.7504C21.6831 16.7504 21.3669 16.7478 21.0558 16.7426C20.6722 16.74 20.2911 16.7323 19.9153 16.7167C21.0066 15.8224 23.1736 13.8965 23.5365 12.4241C23.9668 10.6692 23.565 8.23522 26.1546 7.54053C26.8467 7.35389 27.391 6.83547 27.6243 6.15892C27.7021 5.9334 27.8187 5.70529 27.9535 5.50051C28.192 5.1402 28.4875 4.85248 28.7597 4.76175C29.0474 4.66584 29.3014 4.55956 29.5244 4.44033C30.3616 4.00744 30.7815 3.4268 31.0019 2.57658C31.2792 1.52935 31.9325 0.101079 33.5318 0.00257803C35.5848 -0.121845 35.704 3.64972 35.6392 5.26981C35.6288 5.51866 35.6703 5.76491 35.7559 5.99561C35.8155 6.15892 35.901 6.31445 36.0047 6.45701C36.4765 7.10764 37.1349 8.31299 36.6476 9.48723C36.2147 10.5345 35.2971 11.6569 34.6361 12.3852L34.6335 12.3878Z" fill="#1E8637"/>
<path id="Vector_11" d="M41.9718 11.7424C41.8189 12.1079 41.6089 12.4838 41.373 12.8467C40.6861 13.4169 39.6907 13.9483 38.4413 14.4227C37.3138 14.8478 35.9762 15.234 34.4779 15.558C34.3535 15.5866 34.2265 15.6125 34.0995 15.6384C33.27 15.8095 32.3913 15.965 31.4762 16.0998C30.3072 16.2709 29.0733 16.4135 27.785 16.5171C28.3061 15.895 28.7208 15.2496 28.8608 14.6767C29.2911 12.9218 28.8893 10.4878 31.4788 9.79312C32.1709 9.60649 32.7127 9.08806 32.9486 8.41151C33.1663 7.7894 33.6562 7.15951 34.0839 7.01435C34.4624 6.88733 34.7838 6.74217 35.056 6.57887C35.2867 6.44407 35.4785 6.29114 35.6392 6.12265C35.6807 6.08117 35.717 6.0397 35.7533 5.99823C36.0255 5.67421 36.2043 5.29316 36.3261 4.82917C36.6035 3.78194 37.2567 2.35367 38.8561 2.25517C40.9091 2.13075 41.0283 5.90232 40.9635 7.52241C40.9635 7.5561 40.9609 7.59239 40.9609 7.62609C40.9661 8.0175 41.0957 8.39337 41.329 8.7122C41.5052 8.95586 41.7074 9.27729 41.8656 9.64537C42.1325 10.2597 42.2751 11.0062 41.9718 11.745V11.7424Z" fill="#44C660"/>
<path id="Vector_12" d="M14.7933 15.3325C14.8685 15.4958 14.91 15.6747 14.91 15.8691C14.91 16.0505 14.8737 16.2268 14.8037 16.3849C14.6559 16.372 14.5108 16.3538 14.3656 16.3383C13.5206 16.2449 12.7066 16.1335 11.9238 16.0065C11.9212 15.9987 11.9186 15.9935 11.9134 15.9883C10.3037 15.7161 9.0906 15.4621 8.12113 15.2262C8.10817 15.2236 8.09521 15.221 8.08225 15.2185C5.98003 14.7026 5.05463 14.2827 3.81299 13.995C3.52786 14.1453 3.20125 14.2309 2.8539 14.2309C2.74762 14.2309 2.64394 14.2231 2.54025 14.2023C1.72114 14.0805 1.05755 13.4739 0.85536 12.6833C0.811293 12.5174 0.787964 12.3464 0.787964 12.1649C0.787964 11.6361 0.987559 11.1566 1.31417 10.7911C1.08865 10.4878 0.953861 10.1093 0.953861 9.70238C0.953861 9.54426 0.972006 9.39132 1.01089 9.24616C1.17679 8.60849 1.67188 8.10821 2.30437 7.93713C2.29141 7.85159 2.28104 7.76346 2.28104 7.67014C2.28104 6.65661 3.10015 5.83749 4.11368 5.83749C4.6684 5.83749 5.16609 6.08375 5.50048 6.47775C5.726 6.73697 5.87634 7.06099 5.92559 7.4187C5.96188 7.41611 5.99817 7.41092 6.03705 7.40833C6.08112 7.40574 6.12519 7.40315 6.17184 7.40315C7.31239 7.40315 8.23778 8.33114 8.23778 9.47168C8.23778 9.50278 8.23519 9.5313 8.2326 9.5624C8.2637 9.5624 8.29222 9.55722 8.32332 9.55722C9.28501 9.55722 10.086 10.2104 10.3193 11.097C10.537 10.9388 10.8014 10.8455 11.0891 10.8455C11.649 10.8455 12.1208 11.1929 12.3152 11.6828C12.5589 11.4054 12.9088 11.2292 13.3028 11.2292C14.0338 11.2292 14.6222 11.8176 14.6222 12.5486C14.6222 12.8648 14.5082 13.1499 14.3241 13.378C14.7544 13.5932 15.0499 14.0364 15.0499 14.5523C15.0499 14.8452 14.9514 15.1148 14.7881 15.3351L14.7933 15.3325Z" fill="url(#paint1_linear_0_1)"/>
</g>
</g>
</g>
</g>
</g>
</g>
</g>
</g>
<defs>
<linearGradient id="paint0_linear_0_1" x1="-454.466" y1="-429.657" x2="-454.466" y2="932" gradientUnits="userSpaceOnUse">
<stop stop-color="white"/>
<stop offset="1" stop-color="#CFD8DC"/>
</linearGradient>
<linearGradient id="paint1_linear_0_1" x1="0.790556" y1="11.1099" x2="15.0577" y2="11.1099" gradientUnits="userSpaceOnUse">
<stop stop-color="#F23920"/>
<stop offset="1" stop-color="#D62300"/>
</linearGradient>
<clipPath id="clip0_0_1">
<rect width="1440" height="1024" fill="white" transform="translate(-1112 -92)"/>
</clipPath>
<clipPath id="clip1_0_1">
<rect width="43.4314" height="32" fill="white" transform="translate(0.285034)"/>
</clipPath>
</defs>
</svg>
