<svg width="34" height="32" viewBox="0 0 34 32" fill="none" xmlns="http://www.w3.org/2000/svg">
<rect width="34" height="32" fill="#868686"/>
<g id="FoodieGo - Main View" clip-path="url(#clip0_0_1)">
<rect id="Rectangle 24" x="-1209" y="-92" width="1440" height="1024" fill="url(#paint0_linear_0_1)"/>
<g id="Mask group">
<mask id="mask0_0_1" style="mask-type:alpha" maskUnits="userSpaceOnUse" x="-1033" y="-4" width="1088" height="62">
<rect id="Rectangle 23" x="-1033" y="-4" width="1088" height="62" fill="#D9D9D9"/>
</mask>
<g mask="url(#mask0_0_1)">
<g id="Frame 223">
<g id="Group 238">
<g id="Frame 221">
<g id="Food - icons">
<g id="Layer_1" clip-path="url(#clip1_0_1)">
<path id="Vector" d="M0.834473 32V23.8092V17.0188L33.1592 8.2963V24.6372L0.834473 32Z" fill="#9A663E"/>
<path id="Vector_2" d="M0.834473 22.1329L33.1592 14.5063V19.4338L0.834473 26.9467V22.1329Z" fill="#E2D9C9"/>
<path id="Vector_3" d="M0.834473 17.0188L10.7787 3.77068C11.6026 2.67479 12.8649 1.9929 14.2327 1.89143C23.7467 1.18113 30.0704 3.30797 33.1551 8.30036L0.834473 17.0188Z" fill="#7F5332"/>
<path id="Vector_4" d="M33.1592 8.2963C31.9983 7.89447 29.1044 7.07052 28.8284 7.38711C28.4103 7.86606 6.40726 14.9812 6.40726 14.9812C6.40726 14.9812 2.22664 16.6291 0.838516 17.0147C0.769515 17.104 0.708632 18.8493 2.52294 18.48C3.25353 18.3298 3.37936 16.3328 4.96637 15.9026C5.97297 15.6306 7.09321 17.9158 8.06733 17.7494C9.4514 17.514 9.84917 14.7621 11.6757 14.9163C13.5021 15.0746 11.2576 22.896 15.5519 22.068C19.8461 21.24 15.422 13.7879 18.3362 13.5485C21.1734 13.313 19.1561 17.1121 22.4073 16.6819C24.7452 16.3694 23.3043 13.9787 24.1079 12.6312C24.1242 12.6068 24.1363 12.5824 24.1526 12.5581C24.1566 12.554 24.1607 12.5459 24.1647 12.5419C24.181 12.5175 24.1972 12.4972 24.2135 12.4729C24.2175 12.4647 24.2216 12.4607 24.2297 12.4566C24.2459 12.4363 24.2662 12.412 24.2865 12.3917C24.2906 12.3876 24.2946 12.3795 24.3027 12.3754C24.323 12.3552 24.3433 12.3308 24.3677 12.3105C24.3677 12.3105 24.3758 12.3064 24.3758 12.3024C24.3961 12.2821 24.4205 12.2618 24.4448 12.2456C24.4489 12.2456 24.4529 12.2374 24.457 12.2334C24.4813 12.2131 24.5098 12.1928 24.5341 12.1766C24.5422 12.1725 24.5463 12.1684 24.5544 12.1644C24.5828 12.1441 24.6112 12.1279 24.6396 12.1116C24.6478 12.1116 24.6518 12.1035 24.6599 12.0994C24.6883 12.0832 24.7208 12.0629 24.7533 12.0467C24.7573 12.0467 24.7655 12.0426 24.7695 12.0386C24.802 12.0223 24.8345 12.0061 24.871 11.9899C24.871 11.9899 24.875 11.9899 24.8791 11.9899C24.9156 11.9736 24.9522 11.9574 24.9928 11.9452C25.0009 11.9452 25.0049 11.9411 25.013 11.9371C25.0496 11.9249 25.0902 11.9087 25.1308 11.8965C25.1389 11.8965 25.147 11.8924 25.1551 11.8884C25.1957 11.8762 25.2403 11.864 25.285 11.8519C25.2931 11.8519 25.3012 11.8519 25.3093 11.8478C25.354 11.8356 25.4027 11.8275 25.4514 11.8153C25.4555 11.8153 25.4595 11.8153 25.4636 11.8153C25.5123 11.8072 25.561 11.795 25.6138 11.7869C25.6178 11.7869 25.6259 11.7869 25.63 11.7869C25.6828 11.7788 25.7355 11.7707 25.7923 11.7666C25.8005 11.7666 25.8126 11.7666 25.8208 11.7666C25.8735 11.7585 25.9303 11.7544 25.9872 11.7504C25.9993 11.7504 26.0075 11.7504 26.0196 11.7504C26.0805 11.7463 26.1374 11.7423 26.2023 11.7382C26.2104 11.7382 26.2185 11.7382 26.2266 11.7382C26.2916 11.7382 26.3606 11.7341 26.4296 11.7301C26.4661 11.7301 26.4986 11.7301 26.5311 11.7301C26.5392 11.7301 26.5432 11.7301 26.5514 11.7301C26.5838 11.7301 26.6122 11.7301 26.6406 11.7341C26.6447 11.7341 26.6528 11.7341 26.6569 11.7341C26.6853 11.7341 26.7137 11.7423 26.7421 11.7463C26.7705 11.7504 26.7949 11.7544 26.8233 11.7626C26.8274 11.7626 26.8314 11.7626 26.8355 11.7626C26.8598 11.7666 26.8842 11.7747 26.9045 11.7829C26.9045 11.7829 26.9126 11.7829 26.9167 11.7829C26.941 11.791 26.9613 11.7991 26.9816 11.8072C27.0019 11.8153 27.0222 11.8234 27.0425 11.8356C27.0425 11.8356 27.0506 11.8356 27.0506 11.8397C27.0709 11.8478 27.0871 11.86 27.1034 11.8721C27.1034 11.8721 27.1074 11.8721 27.1115 11.8762C27.148 11.9006 27.1805 11.9249 27.2089 11.9493C27.2089 11.9493 27.2129 11.9493 27.217 11.9533C27.2332 11.9655 27.2454 11.9817 27.2576 11.9939C27.286 12.0264 27.3144 12.0589 27.3388 12.0913C27.3509 12.1076 27.3631 12.1238 27.3712 12.14C27.3956 12.1725 27.4159 12.209 27.4362 12.2456C27.6675 12.6555 27.7771 13.1547 28.7391 13.1385C29.4737 13.1263 29.7457 12.5297 29.9689 11.9736C29.9851 11.9371 29.9973 11.9006 30.0136 11.864C30.0257 11.8397 30.0338 11.8113 30.046 11.7869C30.0501 11.7747 30.0541 11.7666 30.0582 11.7544C30.0663 11.7341 30.0744 11.7139 30.0826 11.6936C30.0866 11.6814 30.0907 11.6692 30.0988 11.657C30.1069 11.6408 30.115 11.6205 30.1231 11.6043C30.1272 11.5921 30.1353 11.5799 30.1394 11.5677C30.1475 11.5515 30.1556 11.5353 30.1637 11.519C30.1678 11.5068 30.1759 11.4947 30.18 11.4825C30.1881 11.4663 30.1962 11.4541 30.2043 11.4378C30.2084 11.4257 30.2165 11.4135 30.2246 11.4054C30.2327 11.3932 30.2409 11.377 30.249 11.3648C30.2571 11.3526 30.2611 11.3445 30.2693 11.3323C30.2774 11.3201 30.2855 11.308 30.2936 11.2958C30.3017 11.2836 30.3058 11.2755 30.3139 11.2674C30.322 11.2552 30.3301 11.243 30.3383 11.2349C30.3464 11.2268 30.3545 11.2187 30.3586 11.2065C30.3667 11.1943 30.3789 11.1862 30.387 11.174C30.3951 11.1659 30.4032 11.1578 30.4113 11.1497C30.4194 11.1416 30.4316 11.1334 30.4438 11.1253C30.4519 11.1172 30.46 11.1131 30.4681 11.105C30.4803 11.0969 30.4925 11.0888 30.5006 11.0847C30.5087 11.0807 30.5169 11.0726 30.525 11.0685C30.5371 11.0604 30.5493 11.0563 30.5615 11.0523C30.5696 11.0523 30.5777 11.0441 30.5859 11.0401C30.6021 11.036 30.6183 11.032 30.6305 11.0279C30.6386 11.0279 30.6467 11.0238 30.6549 11.0238C30.6792 11.0198 30.7036 11.0157 30.732 11.0157C31.5965 10.9995 31.6899 11.795 32.6031 11.6286C32.6193 11.6286 32.6396 11.6205 32.6559 11.6124H32.664C32.6802 11.6043 32.6965 11.6002 32.7127 11.5921C32.7127 11.5921 32.7168 11.5921 32.7208 11.588C32.737 11.5799 32.7492 11.5677 32.7655 11.5596C32.7817 11.5474 32.7939 11.5353 32.806 11.5231C32.806 11.5231 32.8101 11.519 32.8142 11.515C32.8263 11.5028 32.8385 11.4866 32.8507 11.4703C32.8507 11.4703 32.8507 11.4663 32.8548 11.4622C32.8669 11.446 32.8791 11.4297 32.8872 11.4135C32.8872 11.4135 32.8872 11.4135 32.8872 11.4094C32.8994 11.3891 32.9075 11.3729 32.9197 11.3526C32.9197 11.3526 32.9197 11.3445 32.9238 11.3404C32.9359 11.3201 32.944 11.2998 32.9522 11.2755C32.9522 11.2755 32.9522 11.2755 32.9522 11.2714C32.9603 11.2471 32.9725 11.2268 32.9806 11.2024C32.9806 11.2024 32.9806 11.1984 32.9806 11.1943C32.9887 11.17 32.9968 11.1456 33.0049 11.1172C33.0049 11.1172 33.0049 11.1091 33.0049 11.105C33.0212 11.0523 33.0374 10.9954 33.0496 10.9346C33.0496 10.9346 33.0496 10.9346 33.0496 10.9305C33.0577 10.9021 33.0618 10.8696 33.0699 10.8412C33.0699 10.8412 33.0699 10.8371 33.0699 10.8331C33.0821 10.7681 33.0902 10.7032 33.1023 10.6383C33.2119 9.81837 33.1348 8.31659 33.1348 8.31659L33.1592 8.2963Z" fill="#7F5332"/>
<path id="Vector_5" d="M20.3291 2.28919C20.3291 2.28919 20.873 0.88483 19.29 0C19.29 0 18.669 1.62354 20.3291 2.28919Z" fill="#57AD6B"/>
<path id="Vector_6" d="M19.6634 2.31354C19.6634 2.31354 19.7243 0.80771 17.9343 0.487061C17.9343 0.487061 17.8734 2.22425 19.6634 2.31354Z" fill="#57AD6B"/>
<path id="Vector_7" d="M19.7487 1.95637C19.7487 1.95637 20.6822 0.775242 22.2489 1.69254C22.2489 1.69254 21.1652 3.05226 19.7487 1.95637Z" fill="#57AD6B"/>
<path id="Vector_8" d="M20.0653 2.54084C20.0653 2.54084 21.3317 1.72907 22.5169 3.10502C22.5169 3.10502 21.0516 4.03855 20.0653 2.54084Z" fill="#57AD6B"/>
<path id="Vector_9" d="M20.1099 1.99696C19.0871 1.41249 17.2281 0.316599 15.8116 2.7925C14.6913 4.75293 15.3204 6.758 15.84 7.83765C16.0957 8.36936 16.6517 8.68595 17.2362 8.63725C18.4295 8.53578 20.4792 8.06495 21.5995 6.10452C23.016 3.63268 21.1327 2.58144 20.1058 1.99696H20.1099Z" fill="#EA0738"/>
<path id="Vector_10" d="M12.5767 4.39167C12.5767 4.39167 12.0328 2.98731 13.6157 2.10248C13.6157 2.10248 14.2367 3.72602 12.5767 4.39167Z" fill="#64C37D"/>
<path id="Vector_11" d="M13.2423 4.41602C13.2423 4.41602 13.1814 2.91019 14.9714 2.58954C14.9714 2.58954 15.0323 4.32673 13.2423 4.41602Z" fill="#64C37D"/>
<path id="Vector_12" d="M13.1571 4.05885C13.1571 4.05885 12.2236 2.87772 10.6569 3.79502C10.6569 3.79502 11.7406 5.15474 13.1571 4.05885Z" fill="#64C37D"/>
<path id="Vector_13" d="M12.8405 4.64332C12.8405 4.64332 11.5741 3.83155 10.3889 5.2075C10.3889 5.2075 11.8542 6.14103 12.8405 4.64332Z" fill="#64C37D"/>
<path id="Vector_14" d="M12.7958 4.1035C13.8187 3.51903 15.6776 2.42314 17.0941 4.89904C18.2144 6.85946 17.5853 8.86454 17.0657 9.94419C16.81 10.4759 16.254 10.7925 15.6695 10.7438C14.4762 10.6423 12.4265 10.1715 11.3062 8.21106C9.88968 5.73922 11.773 4.68798 12.7999 4.1035H12.7958Z" fill="#FF0C38"/>
</g>
</g>
</g>
</g>
</g>
</g>
</g>
</g>
<defs>
<linearGradient id="paint0_linear_0_1" x1="-551.466" y1="-429.657" x2="-551.466" y2="932" gradientUnits="userSpaceOnUse">
<stop stop-color="white"/>
<stop offset="1" stop-color="#CFD8DC"/>
</linearGradient>
<clipPath id="clip0_0_1">
<rect width="1440" height="1024" fill="white" transform="translate(-1209 -92)"/>
</clipPath>
<clipPath id="clip1_0_1">
<rect width="32.3734" height="32" fill="white" transform="translate(0.810059)"/>
</clipPath>
</defs>
</svg>
