<svg width="42" height="32" viewBox="0 0 42 32" fill="none" xmlns="http://www.w3.org/2000/svg">
<rect width="42" height="32" fill="#868686"/>
<g id="FoodieGo - Main View" clip-path="url(#clip0_0_1)">
<rect id="Rectangle 24" x="-1021" y="-92" width="1440" height="1024" fill="url(#paint0_linear_0_1)"/>
<g id="Mask group">
<mask id="mask0_0_1" style="mask-type:alpha" maskUnits="userSpaceOnUse" x="-845" y="-4" width="1088" height="62">
<rect id="Rectangle 23" x="-845" y="-4" width="1088" height="62" fill="#D9D9D9"/>
</mask>
<g mask="url(#mask0_0_1)">
<g id="Frame 223">
<g id="Group 236">
<g id="Frame 221">
<g id="Food - icons">
<g id="Layer_1" clip-path="url(#clip1_0_1)">
<path id="Vector" d="M39.9602 12.3982C39.8954 14.109 36.987 15.6306 32.5026 16.6027C29.2702 17.3026 25.2187 17.7225 20.8199 17.7225C19.9463 17.7225 19.0883 17.7043 18.2433 17.6732C8.95821 17.3233 1.78316 15.0992 1.67688 12.3982H39.9602Z" fill="#1A292D"/>
<path id="Vector_2" d="M20.8173 19.0082C32.0467 19.0082 41.15 16.0488 41.15 12.3982C41.15 8.74765 32.0467 5.78827 20.8173 5.78827C9.58779 5.78827 0.484497 8.74765 0.484497 12.3982C0.484497 16.0488 9.58779 19.0082 20.8173 19.0082Z" fill="#1A292D"/>
<path id="Vector_3" d="M36.3728 9.20212C35.6055 8.90143 34.7319 8.62407 33.7651 8.37523C33.6536 7.91901 33.5136 7.5276 33.3633 7.19839C34.312 7.43946 35.1907 7.70905 35.9943 8.00196C35.9943 8.00714 35.9995 8.01751 36.0021 8.0227L36.015 8.0538C36.1447 8.38041 36.2665 8.76405 36.3728 9.19953V9.20212Z" fill="#304044"/>
<path id="Vector_4" d="M20.8173 8.24301C30.6156 8.24301 38.6901 10.3141 39.8203 12.984C39.9084 12.7741 39.9603 12.5589 39.9603 12.3412C39.9603 9.368 31.3906 6.95731 20.8173 6.95731C10.2439 6.95731 1.67432 9.36541 1.67432 12.3386C1.67432 12.5563 1.72616 12.7715 1.81429 12.9814C2.94447 10.3115 11.019 8.24042 20.8173 8.24042V8.24301Z" fill="#1A292D"/>
<path id="Vector_5" d="M41.1189 12.7715C40.5487 23.4874 31.6784 32 20.8173 32C9.95621 32 1.08849 23.4874 0.515625 12.7715C0.984803 15.5243 6.63827 17.8288 14.3577 18.6686C16.2033 18.8708 18.1655 18.9874 20.2055 19.0056C20.3455 19.0056 20.4855 19.0056 20.6255 19.0056H20.8173C23.7905 19.0056 26.6133 18.7982 29.1588 18.4249C30.0298 18.3005 30.867 18.1502 31.6654 17.9869C33.2129 17.668 34.6204 17.2844 35.8491 16.8437C38.9001 15.7576 40.8494 14.3345 41.1164 12.7663L41.1189 12.7715Z" fill="#1A292D"/>
<path id="Vector_6" d="M40.1339 10.3349C40.1339 10.3349 40.1235 10.3245 40.1184 10.3193C40.0484 10.2493 39.9732 10.1819 39.8954 10.1145C39.8591 10.0808 39.8254 10.0497 39.7866 10.016C39.714 9.95641 39.6362 9.89679 39.5611 9.83717C39.517 9.80347 39.4781 9.76978 39.4314 9.73608C39.3692 9.69201 39.3044 9.64535 39.237 9.59869C39.1852 9.5624 39.1308 9.52612 39.0737 9.48983C39.053 9.47427 39.0323 9.46131 39.0089 9.44576C38.9286 9.39392 38.8482 9.34207 38.7653 9.29023C38.7134 9.26172 38.6642 9.22802 38.6097 9.19691C38.4672 9.11396 38.3194 9.03102 38.1665 8.95066C38.1043 8.91696 38.0395 8.88586 37.9772 8.85475C37.8995 8.81587 37.8243 8.77439 37.744 8.7381C37.7336 8.73292 37.7232 8.72774 37.7129 8.72514C37.6455 8.69145 37.5755 8.66034 37.5081 8.62923C37.4173 8.58776 37.3266 8.54629 37.2333 8.50481C37.1633 8.47371 37.0933 8.4426 37.0233 8.41409C36.9197 8.37002 36.8134 8.32595 36.7071 8.28189C36.6449 8.25597 36.5827 8.23004 36.5179 8.20671C36.3468 8.13932 36.1705 8.07192 35.9917 8.00712C35.9917 8.0123 35.9969 8.02267 35.9994 8.02786L36.0124 8.05896C36.142 8.38557 36.2638 8.76921 36.3701 9.20469C36.6423 9.31097 36.8989 9.41984 37.1426 9.5313C37.1737 9.54426 37.2022 9.55981 37.2333 9.57277C37.3085 9.60906 37.3811 9.64276 37.4536 9.67905C37.5055 9.70497 37.5573 9.73089 37.6066 9.75682C37.6403 9.77496 37.674 9.79311 37.7077 9.81125C37.7803 9.84754 37.8502 9.88642 37.9176 9.92531C38.0135 9.97715 38.1043 10.0316 38.195 10.086C38.195 10.086 38.2002 10.0886 38.2028 10.0912C38.2831 10.1405 38.3609 10.1923 38.4387 10.2415C38.4775 10.2675 38.5164 10.2934 38.5553 10.3193C38.6227 10.366 38.6901 10.4126 38.7523 10.4619C38.8327 10.5215 38.9078 10.5837 38.9804 10.6433C38.983 10.6433 38.9856 10.6485 38.9882 10.6511C39.0452 10.7004 39.0996 10.7496 39.1515 10.7989C39.1696 10.817 39.1904 10.8326 39.2085 10.8507C39.2396 10.8818 39.2681 10.9103 39.2966 10.9414C39.3278 10.9751 39.3615 11.0088 39.39 11.0425C39.4159 11.071 39.4392 11.1021 39.4651 11.1332C39.4937 11.1669 39.5222 11.2032 39.5481 11.2369C39.5714 11.2654 39.5922 11.2965 39.6129 11.3251C39.6362 11.3614 39.6596 11.3976 39.6829 11.4339C39.701 11.4624 39.7192 11.4936 39.7347 11.5221C39.7555 11.5609 39.7736 11.5972 39.7918 11.6361C39.8047 11.6646 39.8203 11.6931 39.8306 11.7217C39.8488 11.7631 39.8617 11.8072 39.8773 11.8513C39.8851 11.8746 39.8954 11.9005 39.9006 11.9238C39.9188 11.9887 39.9317 12.0509 39.9421 12.1157C39.9473 12.152 39.9499 12.1908 39.9525 12.2271C39.9551 12.2686 39.9602 12.3101 39.9602 12.349C39.9602 12.3671 39.9602 12.3904 39.9602 12.4086C39.9162 13.5854 38.5294 14.6689 36.212 15.5477C35.157 15.9494 33.905 16.3072 32.5001 16.6104C31.6213 16.8023 30.6778 16.9707 29.6876 17.1185C27.0358 17.5099 24.0186 17.7302 20.8173 17.7302C20.5192 17.7302 20.2237 17.7302 19.9308 17.7251C19.3605 17.7199 18.798 17.7043 18.2407 17.6836C16.6465 17.624 15.112 17.5073 13.6707 17.344C6.70046 16.556 1.76502 14.6482 1.67688 12.4086C1.67688 12.3904 1.67688 12.3671 1.67688 12.349C1.67688 9.98752 7.07891 7.9812 14.5935 7.2554C16.5454 7.06617 18.6399 6.96508 20.8199 6.96508C25.8123 6.96508 30.3615 7.50165 33.7702 8.38298C33.6587 7.92676 33.5188 7.53535 33.3684 7.20615C29.9131 6.32482 25.5557 5.79861 20.8199 5.79861C18.6217 5.79861 16.5065 5.91267 14.5235 6.12263C6.37125 6.97545 0.484497 9.4639 0.484497 12.3982C0.484497 12.5226 0.494866 12.6471 0.515603 12.7689C0.984781 15.5217 6.63824 17.8262 14.3576 18.666C16.2033 18.8682 18.1655 18.9848 20.2055 19.003C20.3455 19.003 20.4855 19.003 20.6254 19.003H20.8173C23.7905 19.003 26.6133 18.7956 29.1588 18.4223C30.0297 18.2979 30.867 18.1476 31.6654 17.9843C33.2129 17.6654 34.6204 17.2818 35.8491 16.8411C38.9001 15.755 40.8493 14.3319 41.1163 12.7637C41.1371 12.6393 41.1474 12.5174 41.1474 12.393C41.1474 11.6724 40.7897 10.9777 40.1313 10.3271L40.1339 10.3349Z" fill="#304044"/>
<path id="Vector_7" d="M27.2588 13.8783C27.1965 14.3423 27.111 14.8348 27.0047 15.3533C26.8777 15.9598 26.7092 16.5456 26.5122 17.1081C24.3011 17.4348 21.8334 17.6421 19.2153 17.7017C18.6969 17.7147 18.1733 17.7199 17.6419 17.7199C17.3438 17.7199 17.0483 17.7199 16.7554 17.7147C16.7372 17.6732 16.7139 17.6343 16.6958 17.5929C15.6537 17.5307 14.6402 17.4425 13.6707 17.3311C12.468 17.1963 11.33 17.0252 10.2621 16.8282C9.37556 14.8426 8.40869 11.929 8.19873 8.28967C8.17799 7.94232 8.16503 7.5872 8.15985 7.22689C8.15466 7.09988 8.15466 6.97286 8.15466 6.84326C8.15466 5.60421 8.45017 4.46108 9.27706 4.41183C13.116 4.1889 11.8977 0 14.1658 0C15.4982 0 16.2551 0.394006 16.6802 0.826894C17.1053 1.25978 17.73 1.32458 18.2433 1.04204C18.4921 0.904658 18.8032 0.679141 19.1479 0.541758C19.4849 0.401782 19.8556 0.344755 20.2289 0.533981C21.7582 1.30903 21.3979 2.70879 22.2378 3.66529C23.0647 4.60624 24.1741 5.42017 24.9414 5.92823C25.0114 5.97489 25.0788 6.01895 25.1436 6.06043C25.592 6.34816 25.986 6.7292 26.2997 7.18283C26.4785 7.43945 26.6315 7.72199 26.7507 8.02527C26.7559 8.03564 26.7585 8.04601 26.7637 8.05638C26.9114 8.42706 27.0514 8.86254 27.1603 9.37319C27.4039 10.4982 27.5128 11.9835 27.2588 13.8809V13.8783Z" fill="#258C38"/>
<path id="Vector_8" d="M33.3347 13.8783C33.2699 14.3423 33.187 14.8348 33.0781 15.3533C33.0729 15.3844 33.0703 15.9469 33.0677 16.4731C32.8811 16.5145 32.6919 16.5586 32.5 16.6001C31.6213 16.7919 30.6778 16.9604 29.6876 17.1081C27.0358 17.4996 24.0186 17.7199 20.8173 17.7199C20.5192 17.7199 20.2237 17.7199 19.9307 17.7147C19.6897 17.7147 19.4512 17.7095 19.2127 17.7017C18.6943 17.7147 18.1707 17.7199 17.6393 17.7199C17.3412 17.7199 17.0457 17.7199 16.7528 17.7147C16.7346 17.6732 16.7113 17.6343 16.6932 17.5929C15.6537 15.4725 14.3136 11.9109 14.2332 7.27874C14.2332 7.13358 14.228 6.98842 14.228 6.84066C14.228 6.59959 14.2384 6.3663 14.2617 6.14078C14.3602 5.20243 14.6842 4.45071 15.3504 4.40923C18.3288 4.23815 18.264 1.67452 19.1479 0.536572C19.3994 0.20737 19.7337 -0.00259399 20.2418 -0.00259399C21.5768 -0.00259399 22.3311 0.391412 22.7562 0.8243C23.1839 1.25719 23.806 1.32199 24.3218 1.03945C24.8169 0.76468 25.5557 0.150342 26.3048 0.528795C27.8368 1.30385 27.4739 2.7036 28.3163 3.6601C29.221 4.68659 30.4574 5.56533 31.2221 6.05524C31.5798 6.28335 31.9013 6.57626 32.1786 6.91584C32.4404 7.23726 32.6582 7.60016 32.8215 8.00194C32.8215 8.00713 32.8267 8.0175 32.8292 8.02268L32.8422 8.05379C32.8552 8.08748 32.8681 8.12118 32.8837 8.15488C32.9977 8.45816 33.1066 8.80551 33.1999 9.19951C33.2129 9.25395 33.2258 9.31098 33.2388 9.37059C33.4825 10.4956 33.5913 11.9809 33.3399 13.8783H33.3347Z" fill="#44C660"/>
<path id="Vector_9" d="M34.5194 8.95326L33.2829 3.59012C33.1896 2.21887 34.9263 2.09963 35.0197 3.47088L34.5194 8.95326Z" fill="#44C660"/>
<path id="Vector_10" d="M34.636 8.75107L36.8963 3.73268C37.6532 2.58436 39.1074 3.54086 38.3505 4.68918L34.636 8.75107Z" fill="#44C660"/>
<path id="Vector_11" d="M34.9134 7.50167L35.3696 2.0167C35.6988 0.681746 37.3889 1.09908 37.0597 2.43403L34.9108 7.50167H34.9134Z" fill="#44C660"/>
<path id="Vector_12" d="M33.5991 16.346C34.172 15.4362 34.7189 14.5315 35.2373 13.6269C35.6365 12.9322 36.0176 12.2401 36.3805 11.5506C36.4919 11.3432 36.5982 11.1332 36.7045 10.9259C36.9274 10.4904 37.1426 10.0575 37.3473 9.62721C37.4873 9.3343 37.6247 9.04138 37.7595 8.74847C37.858 8.53073 37.9539 8.31818 38.0472 8.10044C38.4334 6.63588 32.2434 5.00023 31.8572 6.46739C31.839 6.59181 31.8235 6.71364 31.8053 6.83806C31.7561 7.188 31.7068 7.54313 31.6576 7.90084C31.5928 8.39335 31.528 8.89104 31.4632 9.39651C31.4295 9.65572 31.3984 9.91753 31.3647 10.1819C31.2247 11.3017 31.0925 12.4526 30.9655 13.6269C30.8462 14.7156 30.7322 15.8276 30.6207 16.963L33.5913 16.346H33.5991Z" fill="#E89E0C"/>
<path id="Vector_13" d="M10.6742 16.906C10.1662 16.8178 9.67626 16.7219 9.2019 16.6182C8.82085 16.5353 8.44758 16.4497 8.08987 16.3616C6.97525 16.0817 5.97727 15.768 5.12186 15.4233L3.92689 12.1079L3.62101 11.2629L3.23997 10.2079L2.90558 9.27469L1.88428 6.45185L6.50088 4.79028L6.7601 5.53682L6.99339 6.21078L7.41332 7.42908L7.7477 8.40373L8.05098 9.29024L8.3413 10.1275L10.6768 16.906H10.6742Z" fill="white"/>
<path id="Vector_14" d="M6.49573 4.78769L5.10893 4.58032L0.899292 5.99304L1.87912 6.45185L6.49573 4.78769Z" fill="#F6F7F0"/>
<path id="Vector_15" d="M5.1193 15.4207C5.1193 15.4207 5.10116 15.4155 5.09338 15.4103L3.92951 14.8763L3.27888 12.9659L2.9082 11.8824L2.52197 10.7496L2.17981 9.75424L0.899292 5.99304L1.87912 6.44926L2.90043 9.2721L3.23481 10.2053L3.61586 11.2603L3.92173 12.1053L5.11671 15.4207H5.1193Z" fill="#E4E5DF"/>
<path id="Vector_16" d="M14.5028 17.4218C14.2229 17.3933 13.9455 17.3648 13.6681 17.3337C12.6183 17.2144 11.6203 17.0693 10.6716 16.906C10.1636 16.8178 9.67365 16.7219 9.19928 16.6182L6.99856 10.5267L6.70564 9.72054L6.37385 8.80292L6.03428 7.86197L5.61694 6.70588L6.983 6.21337L10.231 5.04431L10.7857 6.65144L11.1434 7.69348L11.4311 8.52815L11.7422 9.43281L14.495 17.4244L14.5028 17.4218Z" fill="white"/>
<path id="Vector_17" d="M10.2361 5.04172L8.84932 4.83435L4.63708 6.24707L5.61951 6.70588L10.2361 5.04172Z" fill="#F6F7F0"/>
<path id="Vector_18" d="M9.20188 16.6182C8.82083 16.5353 8.44756 16.4497 8.08985 16.3616L6.19758 10.817L5.92282 10.0212L5.5988 9.07251L5.27737 8.13674L4.63452 6.24966L5.61694 6.70329L6.03428 7.86198L6.37385 8.80292L6.70564 9.72054L6.99856 10.5267L9.19928 16.6182H9.20188Z" fill="#E4E5DF"/>
<path id="Vector_19" d="M19.2127 17.7043C18.6942 17.7173 18.1706 17.7225 17.6392 17.7225C17.3412 17.7225 17.0456 17.7225 16.7527 17.7173C16.7346 17.6758 16.7113 17.6369 16.6931 17.5955C17.2012 17.6292 17.717 17.6551 18.238 17.6732C18.562 17.6862 18.8835 17.6966 19.2101 17.7017L19.2127 17.7043Z" fill="#304044"/>
<path id="Vector_20" d="M37.4121 11.8513L37.8528 7.75051C38.1249 6.75513 39.3821 7.09988 39.1126 8.09267L37.4121 11.8513Z" fill="#44C660"/>
<path id="Vector_21" d="M41.1707 9.77239L40.1339 10.3323L39.4288 10.7133L39.2033 10.8352L37.5417 11.7321L38.7523 10.4515L38.9104 10.283L39.4288 9.73351L40.3724 8.73294C41.1889 8.10564 41.9873 9.13991 41.1656 9.7698L41.1707 9.77239Z" fill="#44C660"/>
<path id="Vector_22" d="M38.0472 10.9181L39.7192 7.14654C40.2817 6.28076 41.3756 6.9936 40.8131 7.85678L38.0472 10.9181Z" fill="#44C660"/>
<path id="Vector_23" d="M40.1235 12.1131C40.0717 12.1727 40.0146 12.2323 39.9602 12.2893C39.8954 12.3593 39.828 12.4319 39.7606 12.5019C39.5947 12.6756 39.4262 12.8492 39.2526 13.0229C39.0011 13.2769 38.7419 13.531 38.4775 13.785C38.3531 13.9068 38.2261 14.0261 38.0965 14.1453C37.6843 14.5289 37.2592 14.9126 36.8237 15.291C36.6293 15.374 36.4245 15.4569 36.212 15.5373C35.2062 15.9183 34.0242 16.2631 32.697 16.556C33.0521 15.7835 33.4073 15.0266 33.7546 14.2853C34.1331 13.4843 34.5089 12.7041 34.8848 11.9446C34.9729 11.7657 35.0585 11.5869 35.1466 11.4106C35.3177 11.0684 35.481 10.7315 35.6495 10.3997C35.7739 10.1586 35.8931 9.91752 36.015 9.68164C36.0564 9.5961 36.1005 9.51315 36.142 9.4302C36.2172 9.31874 36.3364 9.25912 36.4893 9.23838C36.7874 9.19691 37.2125 9.31356 37.6662 9.52352C37.8761 9.62202 38.0939 9.73867 38.3116 9.86827C38.3634 9.90197 38.4179 9.93308 38.4697 9.96678C38.5604 10.0264 38.6512 10.086 38.7393 10.1482C38.8015 10.1897 38.8611 10.2338 38.9182 10.2778C39.1022 10.4152 39.2759 10.5604 39.434 10.7055C40.0043 11.2291 40.349 11.7735 40.1261 12.1027L40.1235 12.1131Z" fill="#FCB712"/>
</g>
</g>
</g>
</g>
</g>
</g>
</g>
</g>
<defs>
<linearGradient id="paint0_linear_0_1" x1="-363.466" y1="-429.657" x2="-363.466" y2="932" gradientUnits="userSpaceOnUse">
<stop stop-color="white"/>
<stop offset="1" stop-color="#CFD8DC"/>
</linearGradient>
<clipPath id="clip0_0_1">
<rect width="1440" height="1024" fill="white" transform="translate(-1021 -92)"/>
</clipPath>
<clipPath id="clip1_0_1">
<rect width="41.031" height="32" fill="white" transform="translate(0.484497)"/>
</clipPath>
</defs>
</svg>
