<svg width="42" height="32" viewBox="0 0 42 32" fill="none" xmlns="http://www.w3.org/2000/svg">
<rect width="42" height="32" fill="#868686"/>
<g id="FoodieGo - Main View" clip-path="url(#clip0_0_1)">
<rect id="Rectangle 24" x="-285" y="-92" width="1440" height="1024" fill="url(#paint0_linear_0_1)"/>
<g id="Mask group">
<mask id="mask0_0_1" style="mask-type:alpha" maskUnits="userSpaceOnUse" x="-109" y="-4" width="1088" height="62">
<rect id="Rectangle 23" x="-109" y="-4" width="1088" height="62" fill="#D9D9D9"/>
</mask>
<g mask="url(#mask0_0_1)">
<g id="Frame 223">
<g id="Group 227">
<g id="Frame 221">
<g id="Food - icons">
<g id="Layer_1">
<path id="Vector" d="M38.8988 19.5421C28.2565 19.5061 5.78024 25.5392 3.04571 26.9604C2.22452 27.1153 1.63005 26.1918 2.11115 25.5088C5.44845 20.7808 13.8871 9.16796 18.6566 4.34312C18.676 4.32377 18.6953 4.30441 18.7147 4.28506C19.8179 3.17355 20.7193 2.43531 21.311 2.24176C22.1819 1.9542 23.3073 2.07586 24.5875 2.4989C26.4427 3.11272 28.6243 4.36248 30.8169 5.92191C32.1219 6.85093 33.4353 7.89056 34.6851 8.97165C37.5025 11.5901 39.7256 14.7781 40.0242 18.3421C40.0242 18.3476 40.0242 18.3504 40.0242 18.3559C40.0739 19.0029 39.5486 19.5476 38.8988 19.5448V19.5421Z" fill="url(#paint1_linear_0_1)"/>
<path id="Vector_2" d="M40.323 17.7089C40.0244 14.1449 37.8013 10.9569 34.9839 8.3385C33.77 7.2104 32.4429 6.19014 31.1157 5.28876C28.8788 3.77633 26.6337 2.60952 24.8863 1.86575C24.5158 1.70815 24.1701 1.5699 23.8494 1.45101C21.2614 0.491569 19.0024 1.25746 18.6541 4.34038C18.6734 4.32103 18.69 4.30167 18.7121 4.28232C22.5167 0.588342 40.688 14.8776 37.1654 18.8813C36.6262 19.4923 14.338 21.2398 3.11502 26.9217C3.11502 26.9217 3.11502 26.9217 3.11226 26.9217C3.09014 26.9328 3.06802 26.9439 3.0459 26.9549C5.43205 26.1586 6.82835 25.6692 7.87074 25.3181C7.87074 25.3181 7.87627 25.3181 7.87903 25.3153C9.25322 24.8536 10.0053 24.6296 11.6034 24.2508C11.9463 24.1706 12.2891 24.0904 12.632 24.0158C19.0411 22.6057 27.0789 21.7236 37.9838 20.7918C38.7801 20.7227 39.4354 20.3329 40.0271 19.3928C40.3313 18.9117 40.3617 18.143 40.3257 17.7062L40.323 17.7089Z" fill="#C46E00"/>
<path id="Vector_3" d="M29.6309 16.5062C31.335 16.5062 32.7165 15.2497 32.7165 13.6997C32.7165 12.1498 31.335 10.8933 29.6309 10.8933C27.9267 10.8933 26.5452 12.1498 26.5452 13.6997C26.5452 15.2497 27.9267 16.5062 29.6309 16.5062Z" fill="#D62300"/>
<path id="Vector_4" d="M19.605 12.5689C21.0282 12.5689 22.1819 11.5204 22.1819 10.227C22.1819 8.93355 21.0282 7.88504 19.605 7.88504C18.1818 7.88504 17.0281 8.93355 17.0281 10.227C17.0281 11.5204 18.1818 12.5689 19.605 12.5689Z" fill="#D62300"/>
<path id="Vector_5" d="M12.7509 20.1421C14.055 20.1421 15.1122 19.1814 15.1122 17.9965C15.1122 16.8115 14.055 15.8509 12.7509 15.8509C11.4468 15.8509 10.3896 16.8115 10.3896 17.9965C10.3896 19.1814 11.4468 20.1421 12.7509 20.1421Z" fill="#D62300"/>
<path id="Vector_6" d="M37.6159 17.6177C37.6159 18.1043 35.2602 18.0324 34.9533 18.3836C34.486 18.9144 8.26598 24.0683 8.26322 24.0683C8.26322 24.0683 3.73146 24.9724 2.20244 25.3789C2.12502 25.4784 1.9536 25.7522 1.93701 25.7826C1.6301 26.3411 1.17111 28.2683 3.16188 27.8895C3.96372 27.7374 4.92592 25.5282 6.6706 25.0748C7.77659 24.7872 8.95722 27.3669 10.0273 27.201C11.548 26.9632 12.0291 23.8858 14.0226 24.096C16.0161 24.3061 13.4199 32.4185 18.1313 31.5752C22.8428 30.7291 18.1396 22.9043 21.3331 22.6886C24.441 22.4757 22.1626 26.6978 25.7267 26.2747C28.2898 25.9706 26.758 23.2637 27.6594 21.7679C27.6759 21.7402 27.6925 21.7153 27.7119 21.6877C27.7174 21.6822 27.7202 21.6739 27.7257 21.6683C27.7423 21.6434 27.7617 21.6186 27.781 21.5937C27.7865 21.5881 27.7921 21.5799 27.7976 21.5743C27.817 21.5494 27.8391 21.5246 27.8612 21.5024C27.8667 21.4969 27.8723 21.4914 27.8778 21.4858C27.8999 21.461 27.9248 21.4388 27.9497 21.414C27.9524 21.4112 27.958 21.4084 27.9607 21.4057C27.9856 21.3835 28.0105 21.3614 28.0354 21.3421C28.0409 21.3393 28.0464 21.3338 28.0492 21.331C28.0769 21.3089 28.1045 21.2895 28.1349 21.2674C28.1405 21.2619 28.1488 21.2591 28.1543 21.2536C28.1847 21.2342 28.2151 21.2149 28.2483 21.1955C28.2566 21.19 28.2621 21.1872 28.2704 21.1817C28.3036 21.1623 28.3368 21.143 28.3727 21.1264C28.3782 21.1236 28.3838 21.1209 28.3921 21.1181C28.428 21.1015 28.4667 21.0822 28.5054 21.0656C28.5082 21.0656 28.511 21.0656 28.5137 21.0628C28.5552 21.0462 28.5967 21.0296 28.6409 21.013C28.6492 21.013 28.6547 21.0075 28.663 21.0047C28.7045 20.9909 28.7487 20.9771 28.793 20.9633C28.8013 20.9633 28.8123 20.9577 28.8206 20.955C28.8649 20.9411 28.9119 20.9301 28.9616 20.9163C28.9699 20.9163 28.9782 20.9135 28.9865 20.9107C29.0363 20.8997 29.0888 20.8886 29.1414 20.8776C29.1469 20.8776 29.1497 20.8776 29.1552 20.8776C29.2077 20.8665 29.263 20.8582 29.3211 20.8499C29.3266 20.8499 29.3322 20.8499 29.3377 20.8499C29.3957 20.8416 29.4538 20.8333 29.5146 20.8278C29.5257 20.8278 29.534 20.8278 29.5451 20.825C29.6059 20.8195 29.6667 20.814 29.7303 20.8084C29.7414 20.8084 29.7524 20.8084 29.7635 20.8084C29.8271 20.8057 29.8934 20.8001 29.9626 20.8001C29.9709 20.8001 29.9819 20.8001 29.9902 20.8001C30.0621 20.8001 30.1368 20.7974 30.2114 20.7974C30.2501 20.7974 30.2861 20.7974 30.3248 20.8001C30.3303 20.8001 30.3386 20.8001 30.3441 20.8001C30.3773 20.8001 30.4105 20.8057 30.4437 20.8084C30.4492 20.8084 30.4547 20.8084 30.4603 20.8084C30.4934 20.8112 30.5238 20.8167 30.5543 20.8223C30.5847 20.8278 30.6123 20.8333 30.64 20.8416C30.6455 20.8416 30.651 20.8416 30.6538 20.8444C30.6814 20.8527 30.7063 20.8582 30.7312 20.8665C30.7367 20.8665 30.7395 20.8693 30.745 20.872C30.7699 20.8803 30.7948 20.8886 30.8169 20.8997C30.8391 20.9107 30.8612 20.9218 30.8833 20.9329C30.8861 20.9329 30.8916 20.9356 30.8944 20.9384C30.9137 20.9494 30.9331 20.9605 30.9524 20.9743C30.9552 20.9743 30.9579 20.9771 30.9607 20.9799C30.9994 21.0047 31.0354 21.0352 31.0658 21.0628L31.0713 21.0683C31.0879 21.0822 31.1017 21.0988 31.1155 21.1153C31.146 21.1513 31.1764 21.1872 31.204 21.2259C31.2178 21.2425 31.2289 21.2619 31.24 21.2812C31.2649 21.3199 31.287 21.3587 31.3091 21.4001C31.5524 21.8646 31.6658 22.4232 32.7165 22.4232C33.5183 22.4232 33.828 21.7623 34.0823 21.1402C34.0989 21.0987 34.1155 21.0573 34.1321 21.0186C34.1432 20.9909 34.1542 20.9605 34.1681 20.9329C34.1736 20.9218 34.1791 20.908 34.1819 20.8969C34.1902 20.8748 34.2012 20.8527 34.2095 20.8306C34.2151 20.8167 34.2206 20.8029 34.2261 20.7918C34.2344 20.7725 34.2427 20.7531 34.251 20.7338C34.2565 20.72 34.2621 20.7061 34.2704 20.6923C34.2786 20.6729 34.2869 20.6564 34.2952 20.637C34.3008 20.6232 34.3091 20.6094 34.3146 20.5983C34.3229 20.5817 34.3312 20.5651 34.3395 20.5485C34.345 20.5347 34.3533 20.5236 34.3616 20.5098C34.3699 20.4932 34.3782 20.4794 34.3892 20.4628C34.3975 20.4518 34.4031 20.4379 34.4114 20.4269C34.4197 20.413 34.4307 20.3992 34.439 20.3854C34.4473 20.3743 34.4556 20.3633 34.4611 20.3522C34.4694 20.3384 34.4805 20.3273 34.4916 20.3135C34.4998 20.3024 34.5081 20.2941 34.5164 20.2831C34.5275 20.272 34.5386 20.261 34.5469 20.2499C34.5551 20.2416 34.5634 20.2333 34.5717 20.225C34.5828 20.214 34.5939 20.2057 34.6049 20.1974C34.6132 20.1891 34.6243 20.1836 34.6326 20.1753C34.6436 20.167 34.6575 20.1587 34.6713 20.1504C34.6796 20.1448 34.6906 20.1393 34.6989 20.1338C34.7127 20.1255 34.7266 20.12 34.7404 20.1144C34.7487 20.1117 34.7598 20.1061 34.7681 20.1034C34.7846 20.0978 34.8012 20.0951 34.8178 20.0895C34.8261 20.0895 34.8344 20.084 34.8427 20.084C34.8703 20.0785 34.898 20.0785 34.9257 20.0785C35.8713 20.0785 35.957 20.9716 36.9607 20.7974C36.98 20.7946 36.9994 20.7891 37.0187 20.7835C37.0215 20.7835 37.027 20.7835 37.0298 20.7808C37.0464 20.7753 37.0657 20.767 37.0823 20.7559C37.0851 20.7559 37.0878 20.7531 37.0906 20.7504C37.1072 20.7421 37.1238 20.731 37.1376 20.7172C37.1376 20.7172 37.1376 20.7172 37.1404 20.7172C37.157 20.7034 37.1708 20.6895 37.1874 20.6757C37.1901 20.6729 37.1929 20.6702 37.1957 20.6674C37.2095 20.6508 37.2233 20.6342 37.2371 20.6176C37.2371 20.6176 37.2399 20.6121 37.2427 20.6094C37.2565 20.5928 37.2676 20.5734 37.2814 20.5541C37.2814 20.5541 37.2814 20.5513 37.2842 20.5485C37.298 20.5292 37.309 20.5071 37.3201 20.4822C37.3201 20.4794 37.3256 20.4739 37.3256 20.4711C37.3367 20.449 37.3477 20.4241 37.3588 20.3992C37.3588 20.3992 37.3588 20.3965 37.3588 20.3937C37.3699 20.3688 37.3809 20.3439 37.3892 20.3163C37.3892 20.3163 37.3892 20.3107 37.392 20.308C37.403 20.2803 37.4113 20.2527 37.4196 20.2223C37.4196 20.2195 37.4196 20.214 37.4224 20.2112C37.4418 20.1504 37.4583 20.0868 37.4749 20.0204V20.0149C37.4832 19.9817 37.4888 19.9485 37.4971 19.9126C37.4971 19.9126 37.4971 19.9071 37.4971 19.9043C37.5109 19.8324 37.5247 19.7605 37.5358 19.6859C37.5358 19.6859 37.5358 19.6859 37.5358 19.6831C37.6712 18.7651 37.5938 17.6204 37.5938 17.6204L37.6159 17.6177Z" fill="#FFCD24"/>
<path id="Vector_7" d="M14.2466 13.8573C14.4374 14.0979 15.7839 13.0361 15.5931 12.7956L15.994 13.3016C16.135 13.4813 14.7913 14.543 14.6475 14.3633L14.2466 13.8573Z" fill="#698C31"/>
<path id="Vector_8" d="M8.09472 20.6094C7.81546 20.4849 7.11592 22.0499 7.39518 22.1743L6.80625 21.9117C6.59611 21.8176 7.29564 20.2527 7.50578 20.3467L8.09472 20.6094Z" fill="#698C31"/>
<path id="Vector_9" d="M21.0098 17.2195C20.819 16.979 19.4724 18.0407 19.6632 18.2812L19.2623 17.7753C19.1213 17.5955 20.4651 16.5338 20.6088 16.7135L21.0098 17.2195Z" fill="#698C31"/>
<path id="Vector_10" d="M27.1616 10.4675C27.4409 10.5919 28.1404 9.02695 27.8612 8.90253L28.4501 9.1652C28.6602 9.25921 27.9607 10.8242 27.7506 10.7302L27.1616 10.4675Z" fill="#698C31"/>
<path id="Vector_11" d="M22.3535 5.68691C22.0742 5.56248 21.3747 7.12745 21.654 7.25187L21.065 6.9892C20.8549 6.89519 21.5544 5.33023 21.7646 5.42424L22.3535 5.68691Z" fill="#698C31"/>
<path id="Vector_12" d="M33.7175 15.8979C33.9359 16.1135 32.7304 17.3329 32.512 17.1172L32.9709 17.5707C33.1341 17.731 34.3396 16.5117 34.1765 16.3513L33.7175 15.8979Z" fill="#698C31"/>
</g>
</g>
</g>
</g>
</g>
</g>
</g>
</g>
<defs>
<linearGradient id="paint0_linear_0_1" x1="372.534" y1="-429.657" x2="372.534" y2="932" gradientUnits="userSpaceOnUse">
<stop stop-color="white"/>
<stop offset="1" stop-color="#CFD8DC"/>
</linearGradient>
<linearGradient id="paint1_linear_0_1" x1="20.982" y1="5.33021" x2="20.982" y2="36.0295" gradientUnits="userSpaceOnUse">
<stop stop-color="#FFEB39"/>
<stop offset="0.33" stop-color="#FED545"/>
<stop offset="0.64" stop-color="#FDD239"/>
<stop offset="0.94" stop-color="#FCC026"/>
<stop offset="1" stop-color="#FCF322"/>
</linearGradient>
<clipPath id="clip0_0_1">
<rect width="1440" height="1024" fill="white" transform="translate(-285 -92)"/>
</clipPath>
</defs>
</svg>
