<svg width="24" height="24" viewBox="0 0 24 24" fill="none" xmlns="http://www.w3.org/2000/svg">
<path d="M22.4586 13.4633C21.6325 13.6827 20.7815 13.7938 19.9268 13.7937C17.3243 13.7937 14.8804 12.7819 13.0446 10.9462C11.8391 9.73377 10.9725 8.22655 10.531 6.57479C10.0896 4.92303 10.0888 3.18441 10.5287 1.53224C10.5836 1.32567 10.5833 1.10828 10.5277 0.901883C10.4721 0.695487 10.3632 0.507342 10.2119 0.356319C10.0606 0.205296 9.87232 0.0967063 9.66583 0.041443C9.45935 -0.0138203 9.24196 -0.0138142 9.03548 0.0414607C6.96711 0.59265 5.08005 1.67806 3.5636 3.18879C-1.18787 7.94027 -1.18787 15.6745 3.5636 20.4284C4.693 21.5641 6.03641 22.4645 7.5161 23.0776C8.99579 23.6906 10.5824 24.0041 12.184 24C13.7853 24.0044 15.3715 23.6912 16.8508 23.0783C18.3301 22.4655 19.6731 21.5652 20.802 20.4296C22.3139 18.9129 23.3998 17.0249 23.9506 14.9553C24.0053 14.7488 24.0048 14.5316 23.9493 14.3254C23.8937 14.1191 23.7849 13.9311 23.6339 13.78C23.4828 13.629 23.2948 13.5202 23.0885 13.4646C22.8823 13.4091 22.6651 13.4086 22.4586 13.4633ZM19.0796 18.706C18.1764 19.6143 17.1019 20.3344 15.9185 20.8246C14.7351 21.3148 13.4662 21.5655 12.1852 21.562C10.9039 21.5652 9.63459 21.3144 8.45078 20.8239C7.26697 20.3335 6.19213 19.6132 5.28842 18.7048C1.48773 14.9029 1.48773 8.71552 5.28842 4.91361C6.02285 4.18001 6.87074 3.56961 7.79946 3.1059C7.66352 4.86005 7.90789 6.62286 8.51587 8.27388C9.12385 9.9249 10.0811 11.4252 11.3222 12.6722C12.5665 13.9172 14.0664 14.8772 15.7181 15.4856C17.3698 16.094 19.1339 16.3365 20.8886 16.1962C20.4223 17.1234 19.8118 17.9705 19.0796 18.706Z" fill="white"/>
</svg>
