<svg width="32" height="32" viewBox="0 0 32 32" fill="none" xmlns="http://www.w3.org/2000/svg">
<g clip-path="url(#clip0_543_30)">
<path d="M15.9987 24.4C16.3169 24.4 16.6222 24.5264 16.8472 24.7515C17.0722 24.9765 17.1987 25.2817 17.1987 25.6V26.8C17.1987 27.1183 17.0722 27.4235 16.8472 27.6485C16.6222 27.8736 16.3169 28 15.9987 28C15.6804 28 15.3752 27.8736 15.1501 27.6485C14.9251 27.4235 14.7987 27.1183 14.7987 26.8V25.6C14.7987 25.2817 14.9251 24.9765 15.1501 24.7515C15.3752 24.5264 15.6804 24.4 15.9987 24.4ZM23.6355 21.94L24.4839 22.7884C24.7025 23.0147 24.8234 23.3178 24.8207 23.6325C24.8179 23.9471 24.6917 24.2481 24.4693 24.4706C24.2468 24.6931 23.9458 24.8193 23.6312 24.822C23.3165 24.8247 23.0134 24.7038 22.7871 24.4852L21.9387 23.6368C21.7201 23.4105 21.5991 23.1074 21.6019 22.7927C21.6046 22.4781 21.7308 22.1771 21.9533 21.9546C22.1758 21.7321 22.4768 21.6059 22.7914 21.6032C23.106 21.6005 23.4091 21.7214 23.6355 21.94ZM8.36187 21.94C8.57782 21.7248 8.86759 21.5998 9.17233 21.5905C9.47707 21.5812 9.77393 21.6883 10.0026 21.8899C10.2313 22.0915 10.3746 22.3727 10.4035 22.6762C10.4325 22.9797 10.3448 23.2828 10.1583 23.524L10.0587 23.6368L9.21027 24.4852C8.99432 24.7004 8.70455 24.8254 8.39981 24.8347C8.09507 24.844 7.79821 24.7369 7.56954 24.5353C7.34086 24.3337 7.1975 24.0525 7.16859 23.749C7.13968 23.4455 7.22738 23.1424 7.41387 22.9012L7.51347 22.7884L8.36187 21.94ZM15.9987 8.8C17.9082 8.8 19.7396 9.55857 21.0898 10.9088C22.4401 12.2591 23.1987 14.0904 23.1987 16C23.1987 17.9096 22.4401 19.7409 21.0898 21.0912C19.7396 22.4414 17.9082 23.2 15.9987 23.2C14.0891 23.2 12.2578 22.4414 10.9075 21.0912C9.55724 19.7409 8.79867 17.9096 8.79867 16C8.79867 14.0904 9.55724 12.2591 10.9075 10.9088C12.2578 9.55857 14.0891 8.8 15.9987 8.8ZM15.9987 11.2C14.7256 11.2 13.5047 11.7057 12.6046 12.6059C11.7044 13.5061 11.1987 14.727 11.1987 16C11.1987 17.273 11.7044 18.4939 12.6046 19.3941C13.5047 20.2943 14.7256 20.8 15.9987 20.8C17.2717 20.8 18.4926 20.2943 19.3928 19.3941C20.293 18.4939 20.7987 17.273 20.7987 16C20.7987 14.727 20.293 13.5061 19.3928 12.6059C18.4926 11.7057 17.2717 11.2 15.9987 11.2ZM6.39867 14.8C6.70453 14.8003 6.99871 14.9175 7.22111 15.1274C7.44352 15.3374 7.57735 15.6243 7.59528 15.9297C7.6132 16.235 7.51386 16.5357 7.31755 16.7702C7.12124 17.0047 6.84279 17.1555 6.53907 17.1916L6.39867 17.2H5.19867C4.89281 17.1997 4.59863 17.0825 4.37623 16.8726C4.15383 16.6626 4.01999 16.3757 4.00206 16.0703C3.98414 15.765 4.08348 15.4643 4.27979 15.2298C4.4761 14.9953 4.75456 14.8445 5.05827 14.8084L5.19867 14.8H6.39867ZM26.7987 14.8C27.1169 14.8 27.4222 14.9264 27.6472 15.1515C27.8722 15.3765 27.9987 15.6817 27.9987 16C27.9987 16.3183 27.8722 16.6235 27.6472 16.8485C27.4222 17.0736 27.1169 17.2 26.7987 17.2H25.5987C25.2804 17.2 24.9752 17.0736 24.7501 16.8485C24.5251 16.6235 24.3987 16.3183 24.3987 16C24.3987 15.6817 24.5251 15.3765 24.7501 15.1515C24.9752 14.9264 25.2804 14.8 25.5987 14.8H26.7987ZM7.51347 7.5148C7.7201 7.30819 7.99502 7.18407 8.28665 7.16573C8.57828 7.1474 8.86659 7.2361 9.09747 7.4152L9.21027 7.5148L10.0587 8.3632C10.2739 8.57915 10.3988 8.86892 10.4081 9.17366C10.4174 9.4784 10.3104 9.77526 10.1088 10.0039C9.90713 10.2326 9.62601 10.376 9.3225 10.4049C9.01899 10.4338 8.71586 10.3461 8.47467 10.1596L8.36187 10.06L7.51347 9.2116C7.2885 8.98657 7.16213 8.6814 7.16213 8.3632C7.16213 8.045 7.2885 7.73983 7.51347 7.5148ZM24.4839 7.5148C24.7088 7.73983 24.8352 8.045 24.8352 8.3632C24.8352 8.6814 24.7088 8.98657 24.4839 9.2116L23.6355 10.06C23.5248 10.1746 23.3924 10.266 23.246 10.3289C23.0995 10.3918 22.9421 10.4249 22.7827 10.4263C22.6234 10.4277 22.4654 10.3973 22.3179 10.337C22.1705 10.2766 22.0365 10.1875 21.9238 10.0749C21.8111 9.9622 21.722 9.82822 21.6617 9.68075C21.6013 9.53327 21.571 9.37525 21.5724 9.21592C21.5738 9.05658 21.6069 8.89912 21.6697 8.75272C21.7326 8.60631 21.8241 8.4739 21.9387 8.3632L22.7871 7.5148C23.0121 7.28983 23.3173 7.16346 23.6355 7.16346C23.9537 7.16346 24.2588 7.28983 24.4839 7.5148ZM15.9987 4C16.3169 4 16.6222 4.12643 16.8472 4.35147C17.0722 4.57652 17.1987 4.88174 17.1987 5.2V6.4C17.1987 6.71826 17.0722 7.02348 16.8472 7.24853C16.6222 7.47357 16.3169 7.6 15.9987 7.6C15.6804 7.6 15.3752 7.47357 15.1501 7.24853C14.9251 7.02348 14.7987 6.71826 14.7987 6.4V5.2C14.7987 4.88174 14.9251 4.57652 15.1501 4.35147C15.3752 4.12643 15.6804 4 15.9987 4Z" fill="#212121"/>
</g>
<defs>
<clipPath id="clip0_543_30">
<rect width="32" height="32" fill="white"/>
</clipPath>
</defs>
</svg>
