<svg width="32" height="32" viewBox="0 0 32 32" fill="none" xmlns="http://www.w3.org/2000/svg">
<g clip-path="url(#clip0_520_8)">
<path d="M15.9987 24.4C16.317 24.4 16.6222 24.5264 16.8472 24.7515C17.0723 24.9765 17.1987 25.2817 17.1987 25.6V26.8C17.1987 27.1183 17.0723 27.4235 16.8472 27.6485C16.6222 27.8736 16.317 28 15.9987 28C15.6804 28 15.3752 27.8736 15.1502 27.6485C14.9251 27.4235 14.7987 27.1183 14.7987 26.8V25.6C14.7987 25.2817 14.9251 24.9765 15.1502 24.7515C15.3752 24.5264 15.6804 24.4 15.9987 24.4ZM23.6355 21.94L24.4839 22.7884C24.7025 23.0147 24.8234 23.3178 24.8207 23.6325C24.818 23.9471 24.6918 24.2481 24.4693 24.4706C24.2468 24.6931 23.9458 24.8193 23.6312 24.822C23.3165 24.8247 23.0134 24.7038 22.7871 24.4852L21.9387 23.6368C21.7201 23.4105 21.5992 23.1074 21.6019 22.7927C21.6046 22.4781 21.7308 22.1771 21.9533 21.9546C22.1758 21.7321 22.4768 21.6059 22.7914 21.6032C23.1061 21.6005 23.4092 21.7214 23.6355 21.94ZM8.3619 21.94C8.57785 21.7248 8.86762 21.5998 9.17236 21.5905C9.4771 21.5812 9.77396 21.6883 10.0026 21.8899C10.2313 22.0915 10.3747 22.3727 10.4036 22.6762C10.4325 22.9797 10.3448 23.2828 10.1583 23.524L10.0587 23.6368L9.2103 24.4852C8.99435 24.7004 8.70458 24.8254 8.39984 24.8347C8.0951 24.844 7.79824 24.7369 7.56957 24.5353C7.34089 24.3337 7.19753 24.0525 7.16862 23.749C7.13971 23.4455 7.22741 23.1424 7.4139 22.9012L7.5135 22.7884L8.3619 21.94ZM15.9987 8.8C17.9083 8.8 19.7396 9.55857 21.0899 10.9088C22.4401 12.2591 23.1987 14.0904 23.1987 16C23.1987 17.9096 22.4401 19.7409 21.0899 21.0912C19.7396 22.4414 17.9083 23.2 15.9987 23.2C14.0891 23.2 12.2578 22.4414 10.9075 21.0912C9.55727 19.7409 8.7987 17.9096 8.7987 16C8.7987 14.0904 9.55727 12.2591 10.9075 10.9088C12.2578 9.55857 14.0891 8.8 15.9987 8.8ZM15.9987 11.2C14.7257 11.2 13.5048 11.7057 12.6046 12.6059C11.7044 13.5061 11.1987 14.727 11.1987 16C11.1987 17.273 11.7044 18.4939 12.6046 19.3941C13.5048 20.2943 14.7257 20.8 15.9987 20.8C17.2717 20.8 18.4926 20.2943 19.3928 19.3941C20.293 18.4939 20.7987 17.273 20.7987 16C20.7987 14.727 20.293 13.5061 19.3928 12.6059C18.4926 11.7057 17.2717 11.2 15.9987 11.2ZM6.3987 14.8C6.70456 14.8003 6.99874 14.9175 7.22114 15.1274C7.44355 15.3374 7.57738 15.6243 7.59531 15.9297C7.61323 16.235 7.51389 16.5357 7.31758 16.7702C7.12127 17.0047 6.84282 17.1555 6.5391 17.1916L6.3987 17.2H5.1987C4.89285 17.1997 4.59866 17.0825 4.37626 16.8726C4.15386 16.6626 4.02002 16.3757 4.00209 16.0703C3.98417 15.765 4.08351 15.4643 4.27982 15.2298C4.47613 14.9953 4.75459 14.8445 5.0583 14.8084L5.1987 14.8H6.3987ZM26.7987 14.8C27.117 14.8 27.4222 14.9264 27.6472 15.1515C27.8723 15.3765 27.9987 15.6817 27.9987 16C27.9987 16.3183 27.8723 16.6235 27.6472 16.8485C27.4222 17.0736 27.117 17.2 26.7987 17.2H25.5987C25.2804 17.2 24.9752 17.0736 24.7502 16.8485C24.5251 16.6235 24.3987 16.3183 24.3987 16C24.3987 15.6817 24.5251 15.3765 24.7502 15.1515C24.9752 14.9264 25.2804 14.8 25.5987 14.8H26.7987ZM7.5135 7.5148C7.72013 7.30819 7.99505 7.18407 8.28668 7.16573C8.57831 7.1474 8.86662 7.2361 9.0975 7.4152L9.2103 7.5148L10.0587 8.3632C10.2739 8.57915 10.3989 8.86892 10.4082 9.17366C10.4175 9.4784 10.3104 9.77526 10.1088 10.0039C9.90716 10.2326 9.62604 10.376 9.32253 10.4049C9.01902 10.4338 8.71589 10.3461 8.4747 10.1596L8.3619 10.06L7.5135 9.2116C7.28854 8.98657 7.16216 8.6814 7.16216 8.3632C7.16216 8.045 7.28854 7.73983 7.5135 7.5148ZM24.4839 7.5148C24.7089 7.73983 24.8352 8.045 24.8352 8.3632C24.8352 8.6814 24.7089 8.98657 24.4839 9.2116L23.6355 10.06C23.5248 10.1746 23.3924 10.266 23.246 10.3289C23.0996 10.3918 22.9421 10.4249 22.7828 10.4263C22.6234 10.4277 22.4654 10.3973 22.318 10.337C22.1705 10.2766 22.0365 10.1875 21.9238 10.0749C21.8112 9.9622 21.7221 9.82822 21.6617 9.68075C21.6014 9.53327 21.571 9.37525 21.5724 9.21592C21.5738 9.05658 21.6069 8.89912 21.6698 8.75272C21.7327 8.60631 21.8241 8.4739 21.9387 8.3632L22.7871 7.5148C23.0121 7.28983 23.3173 7.16346 23.6355 7.16346C23.9537 7.16346 24.2589 7.28983 24.4839 7.5148ZM15.9987 4C16.317 4 16.6222 4.12643 16.8472 4.35147C17.0723 4.57652 17.1987 4.88174 17.1987 5.2V6.4C17.1987 6.71826 17.0723 7.02348 16.8472 7.24853C16.6222 7.47357 16.317 7.6 15.9987 7.6C15.6804 7.6 15.3752 7.47357 15.1502 7.24853C14.9251 7.02348 14.7987 6.71826 14.7987 6.4V5.2C14.7987 4.88174 14.9251 4.57652 15.1502 4.35147C15.3752 4.12643 15.6804 4 15.9987 4Z" fill="white" fill-opacity="0.36"/>
</g>
<defs>
<clipPath id="clip0_520_8">
<rect width="32" height="32" fill="white"/>
</clipPath>
</defs>
</svg>
