<svg width="40" height="40" viewBox="0 0 40 40" fill="none" xmlns="http://www.w3.org/2000/svg">
<path d="M12.9688 18.4375C11.4583 18.4375 10.1693 17.9036 9.10156 16.8359C8.03385 15.7682 7.5 14.4792 7.5 12.9688C7.5 11.4583 8.03385 10.1693 9.10156 9.10156C10.1693 8.03385 11.4583 7.5 12.9688 7.5C14.4792 7.5 15.7682 8.03385 16.8359 9.10156C17.9036 10.1693 18.4375 11.4583 18.4375 12.9688C18.4375 14.4792 17.9036 15.7682 16.8359 16.8359C15.7682 17.9036 14.4792 18.4375 12.9688 18.4375ZM12.9688 15.3125C13.6198 15.3125 14.1729 15.0844 14.6281 14.6281C15.0844 14.1729 15.3125 13.6198 15.3125 12.9688C15.3125 12.3177 15.0844 11.7646 14.6281 11.3094C14.1729 10.8531 13.6198 10.625 12.9688 10.625C12.3177 10.625 11.7646 10.8531 11.3094 11.3094C10.8531 11.7646 10.625 12.3177 10.625 12.9688C10.625 13.6198 10.8531 14.1729 11.3094 14.6281C11.7646 15.0844 12.3177 15.3125 12.9688 15.3125ZM27.0312 32.5C25.5208 32.5 24.2318 31.9661 23.1641 30.8984C22.0964 29.8307 21.5625 28.5417 21.5625 27.0312C21.5625 25.5208 22.0964 24.2318 23.1641 23.1641C24.2318 22.0964 25.5208 21.5625 27.0312 21.5625C28.5417 21.5625 29.8307 22.0964 30.8984 23.1641C31.9661 24.2318 32.5 25.5208 32.5 27.0312C32.5 28.5417 31.9661 29.8307 30.8984 30.8984C29.8307 31.9661 28.5417 32.5 27.0312 32.5ZM27.0312 29.375C27.6823 29.375 28.2354 29.1469 28.6906 28.6906C29.1469 28.2354 29.375 27.6823 29.375 27.0312C29.375 26.3802 29.1469 25.8271 28.6906 25.3719C28.2354 24.9156 27.6823 24.6875 27.0312 24.6875C26.3802 24.6875 25.8271 24.9156 25.3719 25.3719C24.9156 25.8271 24.6875 26.3802 24.6875 27.0312C24.6875 27.6823 24.9156 28.2354 25.3719 28.6906C25.8271 29.1469 26.3802 29.375 27.0312 29.375ZM9.6875 32.5L7.5 30.3125L30.3125 7.5L32.5 9.6875L9.6875 32.5Z" fill="#90CAF9"/>
</svg>
